<svg width="39" height="38" viewBox="0 0 39 38" fill="none" xmlns="http://www.w3.org/2000/svg">
<path fill-rule="evenodd" clip-rule="evenodd" d="M28.7146 0.105957C28.3676 0.160148 27.7662 0.30676 27.3782 0.43177C26.9901 0.556779 26.4513 0.771167 26.1808 0.908128C25.9103 1.04509 25.4425 1.31812 25.1414 1.51492C24.7239 1.78765 23.3625 3.10055 19.4141 7.03762L14.2344 12.2025L17.1416 15.1098L20.0489 18.0172L20.5068 17.8449C20.7587 17.7501 21.2202 17.6198 21.5324 17.5553C21.874 17.4848 22.4722 17.4381 23.0345 17.4381C23.5966 17.4381 24.1969 17.4849 24.5411 17.5557C24.856 17.6203 25.4022 17.7814 25.7553 17.9135C26.1082 18.0457 26.6262 18.294 26.9062 18.4653C27.1862 18.6367 27.5655 18.8901 27.7494 19.0286L28.0835 19.2804L28.5662 18.9124C28.8315 18.7101 29.3495 18.3973 29.7171 18.2175C30.0846 18.0376 30.6861 17.8029 31.0536 17.6958C31.4655 17.5758 31.9986 17.4849 32.4436 17.459L33.1653 17.4167L34.897 15.6643C35.9739 14.5744 36.7575 13.7156 36.9696 13.3924C37.1571 13.1065 37.4333 12.6273 37.5835 12.3274C37.7337 12.0275 37.9506 11.493 38.0655 11.1396C38.1807 10.7863 38.3195 10.2467 38.374 9.94046C38.4286 9.63424 38.4733 8.96615 38.4733 8.45579C38.4733 7.94544 38.4286 7.27732 38.374 6.9711C38.3195 6.66491 38.1784 6.11838 38.0608 5.75671C37.9429 5.39498 37.7052 4.82709 37.5322 4.49474C37.3596 4.16231 37.0269 3.6366 36.7932 3.32638C36.5595 3.01616 36.1524 2.56027 35.8882 2.3133C35.6242 2.06633 35.1949 1.71216 34.9344 1.52635C34.674 1.34047 34.1452 1.03737 33.7595 0.852749C33.3739 0.668131 32.7706 0.435037 32.4189 0.334746C32.0672 0.234381 31.5218 0.116498 31.207 0.0727001C30.8921 0.0289764 30.3445 -0.00361244 29.9901 0.000321952C29.6356 0.00425636 29.0618 0.0518404 28.7146 0.105957ZM7.50576 18.9413C3.6593 22.7957 2.28276 24.2214 2.00476 24.6387C1.8008 24.945 1.528 25.4053 1.39866 25.6615C1.26931 25.9178 1.06549 26.4197 0.945801 26.7771C0.826108 27.1343 0.676791 27.7432 0.614049 28.1297C0.551307 28.5165 0.5 29.117 0.5 29.464C0.5 29.811 0.551307 30.4115 0.614049 30.7981C0.676791 31.1849 0.828262 31.8003 0.950701 32.1656C1.07314 32.5309 1.31186 33.0962 1.48122 33.4215C1.65059 33.7469 1.93898 34.2172 2.12223 34.4667C2.3054 34.7162 2.65839 35.1321 2.90669 35.3913C3.15491 35.6506 3.60094 36.0455 3.8977 36.2687C4.19449 36.4922 4.71239 36.8211 5.04858 36.9996C5.38479 37.178 5.96707 37.4268 6.34271 37.5524C6.71828 37.6779 7.3531 37.8299 7.75346 37.8903C8.15375 37.9507 8.73194 38 9.03822 38C9.34451 38 9.9227 37.9507 10.323 37.8903C10.7233 37.8299 11.349 37.6808 11.7132 37.5589C12.0774 37.4368 12.5852 37.2312 12.8416 37.1018C13.0979 36.9726 13.5582 36.6987 13.8645 36.4936C14.2167 36.2577 15.0581 35.4897 16.1533 34.4052L17.8852 32.6897L17.4646 32.0234C17.2333 31.6569 16.913 31.098 16.7529 30.7816L16.4616 30.2064H15.5872C14.8264 30.2064 14.6704 30.1847 14.3869 30.0392C14.1845 29.9356 14.0098 29.7744 13.9257 29.6135C13.8512 29.4713 13.7903 29.2175 13.7903 29.0492C13.7903 28.8551 13.8517 28.6515 13.9588 28.4914C14.0515 28.3525 14.2436 28.1806 14.3858 28.1094C14.5617 28.0209 14.8186 27.9795 15.1905 27.9795C15.7195 27.9793 15.7356 27.9739 15.6966 27.8124C15.6745 27.7203 15.6146 27.4281 15.5635 27.1628C15.5124 26.8974 15.469 26.1958 15.4671 25.6039C15.4651 25.0097 15.5083 24.2779 15.5636 23.9708C15.6185 23.6645 15.747 23.1467 15.8489 22.8201C15.9509 22.4934 16.1651 21.9633 16.3249 21.6421C16.4847 21.3208 16.7336 20.8802 16.8778 20.6629C17.0221 20.4455 17.361 20.0293 17.6308 19.7379L18.1215 19.208L15.4179 16.5043C13.931 15.0173 12.6967 13.8006 12.6752 13.8006C12.6536 13.8006 10.3273 16.1139 7.50576 18.9413ZM21.5866 19.8391C21.2803 19.9304 20.8125 20.1207 20.5471 20.262C20.2816 20.4032 19.806 20.765 19.4901 21.0658C19.1742 21.3666 18.7798 21.8281 18.6135 22.0913C18.4473 22.3544 18.214 22.8124 18.0952 23.1092C17.9764 23.4057 17.8279 23.9425 17.7653 24.3019C17.7026 24.6611 17.6523 25.1596 17.6536 25.4093C17.6549 25.6593 17.6867 26.1008 17.7244 26.3905C17.7621 26.6803 17.8474 27.1571 17.914 27.45L18.0352 27.9823L19.5277 27.9623L21.0203 27.9422L21.8081 26.7027C22.2415 26.021 22.6584 25.3942 22.7345 25.3103C22.8107 25.2259 22.998 25.1196 23.1507 25.0739C23.3036 25.0282 23.5477 25.013 23.6934 25.0404C23.839 25.0678 24.0541 25.1709 24.1715 25.2695C24.2889 25.3684 24.7325 26.018 25.1575 26.7135L25.9302 27.978L26.773 27.9786C27.3963 27.9791 27.6818 28.0107 27.8702 28.1001C28.0555 28.1881 28.2896 28.4618 28.7272 29.1023C29.0584 29.5871 29.3499 29.9825 29.3748 29.9811C29.3997 29.9797 29.6707 29.6045 29.9769 29.1469C30.2904 28.6787 30.644 28.2419 30.786 28.1474L31.0385 27.9793H34.5514H38.0644L38.1804 27.5896C38.244 27.3754 38.3492 26.799 38.4139 26.3091C38.4883 25.7466 38.5165 25.1718 38.4905 24.7502C38.4679 24.3827 38.3976 23.8816 38.334 23.6367C38.2705 23.3917 38.0773 22.9072 37.9047 22.5602C37.6543 22.0567 37.4557 21.7932 36.921 21.2559C36.4012 20.7336 36.1144 20.5126 35.6412 20.27C35.3058 20.098 34.7742 19.8916 34.4598 19.8112C34.0692 19.7114 33.6412 19.6651 33.1067 19.6651C32.6345 19.6651 32.1325 19.7128 31.8378 19.7858C31.5698 19.8522 31.1439 19.9995 30.8912 20.1131C30.6383 20.2268 30.2708 20.4296 30.0744 20.5639C29.8779 20.6982 29.4583 21.0672 29.1421 21.3838C28.7094 21.8172 28.5011 21.9718 28.2997 22.0096C28.1516 22.0374 27.9035 22.0213 27.7438 21.9735C27.5522 21.9161 27.3617 21.7734 27.1756 21.5481C27.0215 21.3616 26.6669 21.0288 26.3873 20.8086C26.1077 20.5884 25.6667 20.3069 25.4068 20.183C25.1471 20.0591 24.6773 19.8919 24.3624 19.8114C23.9544 19.7071 23.5543 19.6662 22.9669 19.6691C22.3387 19.6721 22.0114 19.7125 21.5866 19.8391ZM23.1645 28.7294C23.0114 28.9784 22.7684 29.3543 22.6248 29.5645C22.4811 29.7746 22.2473 30.0048 22.1051 30.0763C21.8856 30.1865 21.6294 30.2062 20.4108 30.2062L18.9751 30.2064L19.1631 30.5425C19.2665 30.7275 19.5669 31.1869 19.8306 31.5633C20.0944 31.9397 20.5895 32.564 20.9309 32.9503C21.2724 33.3366 21.902 33.9663 22.3302 34.3497C22.7584 34.7331 23.4095 35.2715 23.7771 35.5463C24.1446 35.8211 24.668 36.2 24.9404 36.3884C25.2125 36.5768 25.8279 36.9672 26.3077 37.2561C26.7874 37.5449 27.3635 37.8347 27.5881 37.8998C27.8713 37.9821 28.1233 38.0036 28.4106 37.9697C28.6383 37.943 28.9962 37.8426 29.2059 37.7467C29.4155 37.6508 29.9505 37.3454 30.3945 37.0683C30.8387 36.791 31.5196 36.3309 31.9075 36.0459C32.2954 35.7609 32.9136 35.2699 33.2814 34.955C33.6489 34.6399 34.1834 34.1355 34.4693 33.8342C34.755 33.533 35.1913 33.0358 35.439 32.73C35.6867 32.424 36.0404 31.9564 36.2252 31.6911C36.41 31.4255 36.6837 31.0037 36.8332 30.7533C36.9827 30.5031 37.1049 30.2776 37.1049 30.2523C37.1049 30.227 35.9407 30.2064 34.518 30.2064H31.931L31.0638 31.5074C30.4994 32.3541 30.1127 32.8598 29.9568 32.9548C29.8102 33.0442 29.5841 33.1009 29.3753 33.1012C29.1434 33.1014 28.9539 33.0478 28.7858 32.9345C28.6408 32.8368 28.1796 32.2441 27.6732 31.5054L26.8085 30.2435L25.8867 30.2064C25.3798 30.186 24.9148 30.1392 24.8535 30.1026C24.7924 30.0659 24.6658 29.9668 24.5721 29.8825C24.4785 29.7981 24.1998 29.4023 23.9528 29.0026C23.7058 28.6031 23.4902 28.2763 23.4735 28.2763C23.457 28.2763 23.3179 28.4801 23.1645 28.7294Z" fill="#001887"/>
</svg>
