<svg width="41" height="40" viewBox="0 0 41 40" fill="none" xmlns="http://www.w3.org/2000/svg">
<path fill-rule="evenodd" clip-rule="evenodd" d="M18.2751 1.13598C18.0998 1.21773 17.8721 1.3759 17.7693 1.48739C17.6559 1.61026 16.6271 4.09698 15.159 7.79659C13.8263 11.1551 12.7359 14.001 12.7359 14.1208C12.7359 14.2556 12.8033 14.3856 12.913 14.4623C13.0633 14.5674 13.4353 14.5862 15.3639 14.5865C17.492 14.5867 17.6542 14.5969 17.8972 14.7448C18.0402 14.8317 18.2283 15.0193 18.3154 15.162C18.4025 15.3045 18.4739 15.56 18.4741 15.7298C18.4743 15.9519 18.0241 17.1109 16.8683 19.865C15.9849 21.9696 15.2107 23.8169 15.148 23.9699L15.0341 24.2483L15.2333 24.0495C15.3428 23.9401 17.9461 21.1864 21.0182 17.9301C24.0904 14.6736 26.6039 11.9826 26.6039 11.9501C26.6039 11.9176 25.519 11.88 24.193 11.8667C21.8757 11.8435 21.7712 11.8357 21.503 11.6691C21.3496 11.5738 21.1613 11.3893 21.0846 11.2592C21.002 11.1192 20.9452 10.8608 20.9452 10.6253C20.9452 10.2467 21.0028 10.1401 22.1644 8.37115C22.835 7.34999 23.8996 5.72984 24.5301 4.77094C25.5734 3.18435 25.6797 2.98976 25.7114 2.60876C25.7381 2.28685 25.7049 2.10506 25.5677 1.82211C25.4567 1.59332 25.2668 1.37343 25.066 1.24071L24.7429 1.02727L21.6684 1.00723C18.8078 0.988618 18.5718 0.997604 18.2751 1.13598ZM11.3232 8.58014C11.094 8.64448 10.6948 8.80376 10.436 8.9341C10.1772 9.06444 9.77285 9.34884 9.53744 9.56601C9.26279 9.81948 9.13798 9.987 9.18915 10.0337C9.23299 10.0738 9.43997 10.1693 9.64911 10.2462C9.90675 10.3407 10.0673 10.4592 10.1472 10.6132C10.2122 10.7383 10.2651 10.9091 10.2651 10.9928C10.2651 11.0766 10.194 11.2353 10.107 11.3458C10.02 11.4561 9.86338 11.5677 9.75893 11.5938C9.64823 11.6216 9.32735 11.5594 8.9899 11.4449C8.67133 11.3368 8.18698 11.2255 7.91353 11.1975C7.63282 11.1688 7.17748 11.1881 6.86808 11.2418C6.56657 11.294 6.10167 11.4407 5.83499 11.5676C5.5683 11.6945 5.16677 11.9439 4.94272 12.1219C4.71876 12.2999 4.39326 12.6579 4.21952 12.9175C4.04577 13.1772 3.84133 13.5522 3.76522 13.751C3.68911 13.9498 3.64271 14.1283 3.662 14.1475C3.68137 14.1668 3.89274 14.1307 4.13185 14.0672C4.37087 14.0038 4.68466 13.9514 4.82907 13.9509C5.00258 13.9502 5.15816 14.0161 5.28736 14.1452C5.41743 14.2749 5.48303 14.4298 5.48303 14.6072C5.48303 14.7655 5.4172 14.9447 5.32139 15.0473C5.23252 15.1425 5.0622 15.2422 4.94281 15.2691C4.8235 15.2958 4.58328 15.3535 4.40905 15.3971C4.23482 15.4409 3.89266 15.5771 3.64869 15.7C3.40481 15.8229 3.02726 16.0839 2.80983 16.2799C2.59241 16.4759 2.28938 16.8439 2.13643 17.0976C1.98357 17.3514 1.77826 17.7937 1.68022 18.0806C1.55517 18.4467 1.50145 18.7926 1.50002 19.2415C1.4989 19.5931 1.55286 20.0912 1.61997 20.3483C1.68708 20.6054 1.85485 21.0269 1.99265 21.285C2.13054 21.543 2.43531 21.9488 2.66995 22.1867C2.90452 22.4246 3.29362 22.7302 3.5344 22.8658C3.77526 23.0014 4.00735 23.1778 4.05023 23.2577C4.09303 23.3375 4.1281 23.5125 4.1281 23.6466C4.1281 23.7834 4.05899 23.9594 3.97068 24.0475C3.88414 24.1338 3.71509 24.2291 3.59505 24.2592C3.43278 24.2998 3.25847 24.252 2.9156 24.0725C2.66191 23.9397 2.45436 23.8634 2.45436 23.9028C2.45436 23.9422 2.55798 24.1794 2.68462 24.4297C2.81135 24.6801 3.06154 25.0817 3.2407 25.322C3.41979 25.5625 3.78657 25.9443 4.05565 26.1705C4.32472 26.3966 4.80078 26.7095 5.11361 26.8656C5.42636 27.0218 5.88974 27.2019 6.14328 27.2659C6.39688 27.3299 6.81826 27.4064 7.07977 27.4359L7.55526 27.4896V26.7997C7.55526 26.1733 7.57328 26.0919 7.75093 25.9147C7.88595 25.7799 8.03515 25.7195 8.23273 25.7195C8.42521 25.7195 8.57903 25.7795 8.70258 25.9027C8.86524 26.065 8.89099 26.1851 8.92892 26.9564C8.96121 27.6128 9.02656 27.9912 9.19457 28.4949C9.31715 28.8624 9.58384 29.4171 9.78705 29.7276C9.99027 30.0381 10.4034 30.5176 10.705 30.7932C11.0458 31.1047 11.4962 31.4129 11.895 31.6079C12.2479 31.7804 12.7697 31.9808 13.0546 32.0533C13.3424 32.1264 13.8917 32.1859 14.2901 32.1871C14.6846 32.1883 15.2225 32.1443 15.4856 32.0894C15.7486 32.0346 16.2996 31.8286 16.71 31.6318C17.2984 31.3496 17.5913 31.144 18.0958 30.6592L18.7355 30.0445L18.3235 29.7492C18.0969 29.5868 17.8722 29.3678 17.8242 29.2625C17.7761 29.1573 17.7603 28.9782 17.7889 28.8645C17.8174 28.7508 17.9116 28.5872 17.9982 28.5008C18.0913 28.4079 18.2615 28.3443 18.4146 28.3452C18.5919 28.3463 18.8809 28.4818 19.3298 28.7745C19.6906 29.01 20.2582 29.3157 20.5909 29.4538C20.9238 29.5922 21.4714 29.7785 21.8079 29.8682C22.2166 29.977 22.7767 30.0444 23.4956 30.0713C24.3035 30.1015 24.7468 30.0785 25.275 29.9794C25.662 29.9068 26.2748 29.7404 26.6369 29.6096C26.9989 29.4789 27.5724 29.2144 27.9111 29.0217C28.2499 28.829 28.7819 28.4636 29.0934 28.2094C29.4048 27.9553 29.8372 27.5345 30.0543 27.2745C30.2712 27.0145 30.5745 26.6126 30.7283 26.3815L31.0079 25.9615L30.6339 25.2242C30.4283 24.8186 30.2401 24.3375 30.2155 24.1549C30.1777 23.8716 30.2012 23.793 30.3764 23.6182C30.5209 23.474 30.6667 23.4133 30.8681 23.4133C31.0755 23.4133 31.2086 23.4714 31.3501 23.6237C31.4575 23.7394 31.5454 23.8778 31.5454 23.9311C31.5454 23.9844 31.6703 24.2771 31.8229 24.5813C32.0077 24.9502 32.2678 25.2953 32.6027 25.6161C32.8792 25.8809 33.3193 26.204 33.5807 26.334C33.8421 26.464 34.2354 26.6145 34.4546 26.6684C34.6737 26.7223 35.14 26.7653 35.4907 26.7642C35.905 26.7628 36.3139 26.7046 36.6583 26.5979C36.9498 26.5075 37.4061 26.2887 37.6721 26.1114C37.9383 25.9341 38.2946 25.6318 38.4642 25.4397C38.6337 25.2475 38.8851 24.8793 39.0228 24.6214C39.1606 24.3635 39.3316 23.9055 39.4028 23.6039C39.4924 23.2243 39.5185 22.8717 39.4875 22.459C39.4628 22.131 39.373 21.6619 39.2881 21.4168C39.2031 21.1715 39.0361 20.8137 38.9169 20.6215C38.7977 20.4293 38.552 20.1156 38.3707 19.9242C38.1895 19.7329 37.8817 19.4734 37.6868 19.3477C37.4919 19.2219 37.3037 19.119 37.2683 19.119C37.2331 19.119 37.2043 19.1689 37.2043 19.2299C37.2043 19.2909 37.131 19.5774 37.0416 19.8664C36.9295 20.2284 36.8165 20.4328 36.6786 20.5229C36.5684 20.595 36.3637 20.6506 36.2236 20.6466C36.0538 20.6419 35.9092 20.5702 35.7895 20.4314C35.6909 20.317 35.6103 20.1544 35.6103 20.07C35.6103 19.9856 35.7031 19.6029 35.8165 19.2195C35.9557 18.7492 36.037 18.2453 36.0668 17.6693C36.0937 17.1478 36.0721 16.576 36.0111 16.1981C35.9562 15.8582 35.8052 15.2875 35.6756 14.9298C35.5459 14.5721 35.2287 13.9595 34.9706 13.5686C34.7067 13.1689 34.2557 12.631 33.9403 12.3395C33.6316 12.0544 33.1334 11.6756 32.833 11.4975C32.5325 11.3194 32.1021 11.101 31.8762 11.0122C31.6505 10.9235 31.4657 10.8669 31.4657 10.8866C31.4657 10.9064 31.5913 11.1504 31.7447 11.4289C31.8982 11.7074 32.0237 12.0324 32.0237 12.151C32.0237 12.274 31.9396 12.4506 31.828 12.5619C31.7041 12.6855 31.5415 12.757 31.3844 12.757C31.2481 12.757 31.067 12.72 30.9822 12.6747C30.8973 12.6294 30.7341 12.4057 30.6192 12.1777C30.5045 11.9496 30.2574 11.5474 30.0702 11.2839C29.883 11.0204 29.4776 10.5673 29.1693 10.2771C28.8611 9.98692 28.3639 9.60466 28.0646 9.42759C27.7653 9.25061 27.2694 9.01148 26.9626 8.89633C26.6557 8.7811 26.1415 8.63645 25.8198 8.57481C25.4981 8.51318 24.9223 8.46276 24.5399 8.46276C24.1038 8.46276 23.7982 8.49983 23.7197 8.56217C23.6508 8.61688 23.3391 9.04504 23.0269 9.51386C22.7148 9.98255 22.4595 10.403 22.4595 10.4483C22.4595 10.5028 23.2001 10.5304 24.6642 10.5304C26.8481 10.5304 26.872 10.5322 27.1956 10.7214C27.3886 10.8342 27.6021 11.0539 27.7174 11.2582C27.8564 11.5043 27.9111 11.7192 27.9073 12.0037C27.9042 12.2234 27.8461 12.5097 27.7782 12.6399C27.7102 12.77 26.0501 14.6119 24.089 16.7333C22.128 18.8546 19.6898 21.467 18.671 22.5385C17.6522 23.6101 16.5366 24.759 16.192 25.0916C15.8472 25.4242 15.4397 25.7619 15.2863 25.8421C15.1258 25.926 14.837 25.9888 14.606 25.99C14.3273 25.9916 14.1169 25.938 13.9172 25.8148C13.759 25.7172 13.5681 25.5082 13.493 25.3502C13.4015 25.1581 13.3722 24.9677 13.4042 24.7749C13.4306 24.6165 14.2564 22.5724 15.2395 20.2323L17.0268 15.9778L14.8615 15.938C12.8223 15.9006 12.6769 15.888 12.3673 15.7228C12.1865 15.6263 11.939 15.4295 11.8172 15.2854C11.6956 15.1413 11.5475 14.9083 11.4884 14.7676C11.4293 14.6268 11.3828 14.3048 11.3851 14.0519C11.3886 13.6548 11.5236 13.2554 12.373 11.1268C12.9142 9.77097 13.327 8.62984 13.2906 8.59111C13.2541 8.55239 12.8902 8.50769 12.4819 8.49187C11.989 8.47279 11.5997 8.50245 11.3232 8.58014ZM31.6649 27.4491C31.4989 27.7007 31.0007 28.2674 30.5576 28.7087C30.1147 29.1499 29.5252 29.6631 29.248 29.849C28.9706 30.0348 28.4327 30.3413 28.0525 30.53C27.6722 30.7187 27.0562 30.9689 26.6837 31.086C26.311 31.2031 25.7104 31.3398 25.3486 31.3897C24.987 31.4396 24.6911 31.5104 24.6911 31.5471C24.6911 31.5838 24.824 31.7723 24.9864 31.9662C25.1488 32.16 25.4998 32.4953 25.7665 32.7111C26.0331 32.927 26.519 33.2463 26.8461 33.4207C27.1732 33.5952 27.674 33.808 27.9589 33.8938C28.2438 33.9795 28.799 34.0948 29.1926 34.1499C29.6171 34.2094 30.2046 34.2307 30.6369 34.2024C31.0376 34.1762 31.6482 34.0965 31.9935 34.0256C32.3389 33.9545 32.8904 33.7929 33.2192 33.6664C33.548 33.5399 34.05 33.3018 34.335 33.1374C34.62 32.973 35.1254 32.5677 35.4583 32.2366C35.8649 31.8321 36.1462 31.4665 36.3157 31.1224C36.4544 30.8407 36.6247 30.3418 36.6943 30.0138C36.7775 29.6212 36.8043 29.2406 36.7729 28.9004C36.7467 28.6161 36.7046 28.3083 36.6795 28.2162C36.6357 28.0556 36.5968 28.0504 35.7036 28.0854C35.0297 28.1117 34.628 28.0875 34.2456 27.9977C33.9553 27.9295 33.5135 27.7835 33.2639 27.6733C33.0141 27.5631 32.6491 27.3647 32.4526 27.2325C32.2561 27.1001 32.0664 26.9918 32.0309 26.9918C31.9956 26.9918 31.8308 27.1976 31.6649 27.4491ZM19.5146 31.1443C19.1246 31.5778 19.0993 31.6307 19.1502 31.9018C19.1804 32.0621 19.2716 32.3236 19.3531 32.4828C19.4345 32.6421 19.6351 32.8898 19.7989 33.0333C19.9626 33.1768 20.2136 33.3429 20.3565 33.4024C20.4993 33.462 20.9016 33.5426 21.2506 33.5815C21.6575 33.627 22.0022 33.7182 22.212 33.8358C22.4301 33.9581 23.2187 34.7962 24.577 36.3491C25.6978 37.6305 26.707 38.7511 26.8194 38.8394C26.9319 38.9278 27.0926 39 27.1766 39C27.2605 39 27.428 38.9491 27.5488 38.8866C27.6697 38.8243 27.8113 38.6795 27.8636 38.5649C27.927 38.4261 27.9589 37.8417 27.9589 36.8199V35.2834L27.5006 35.1549C27.2485 35.0841 26.7826 34.9021 26.4652 34.7501C26.1478 34.5982 25.6635 34.322 25.3892 34.1361C25.1149 33.9502 24.6573 33.562 24.3723 33.2736C24.0874 32.985 23.725 32.554 23.5669 32.3158C23.4088 32.0775 23.2233 31.7895 23.1545 31.6759C23.0501 31.5034 22.9524 31.461 22.565 31.42C22.3097 31.393 21.8231 31.2997 21.4838 31.2126C21.1444 31.1256 20.6569 30.9698 20.4003 30.8665L19.934 30.6785L19.5146 31.1443Z" fill="#001887"/>
</svg>
