<svg width="40" height="40" viewBox="0 0 40 40" fill="none" xmlns="http://www.w3.org/2000/svg">
<path fill-rule="evenodd" clip-rule="evenodd" d="M26.625 0.0889392C26.3281 0.150912 25.7828 0.318305 25.4132 0.46094C25.0438 0.603495 24.4062 0.941103 23.9967 1.21101C23.5872 1.48091 23.024 1.9457 22.7453 2.24377C22.4665 2.54185 22.1194 2.95895 21.9739 3.17062C21.8283 3.3823 21.5639 3.8656 21.3864 4.24468C21.2088 4.62372 20.9913 5.24702 20.9028 5.62975C20.8144 6.01248 20.718 6.58733 20.6887 6.90718C20.6593 7.227 20.6772 7.82513 20.7285 8.23633C20.7797 8.64755 20.9336 9.32045 21.0702 9.73165C21.207 10.1428 21.4758 10.7597 21.6677 11.1024C21.9132 11.5412 22.2741 11.9833 22.8883 12.5977C23.5025 13.2122 23.9445 13.5734 24.3831 13.819C24.7256 14.0109 25.3421 14.2799 25.7531 14.4168C26.1641 14.5537 26.8477 14.7102 27.2721 14.7646C27.852 14.8387 28.2451 14.8404 28.8547 14.771C29.301 14.7203 29.9253 14.5987 30.242 14.5009C30.559 14.403 31.0798 14.1916 31.3995 14.0309C31.719 13.8703 32.1488 13.624 32.3542 13.4837C32.5597 13.3434 32.9287 13.04 33.1742 12.8094C33.4198 12.5787 33.781 12.1817 33.977 11.9273C34.1733 11.6727 34.4678 11.2206 34.6318 10.9223C34.7955 10.6242 35.018 10.12 35.1262 9.80202C35.2342 9.484 35.37 8.95922 35.4277 8.63583C35.4955 8.25603 35.5165 7.68423 35.487 7.02065C35.4562 6.33645 35.3812 5.7855 35.262 5.37098C35.1632 5.02863 34.936 4.4492 34.757 4.08335C34.5777 3.7174 34.202 3.12468 33.9217 2.76605C33.6417 2.40743 33.1167 1.87999 32.755 1.59397C32.3935 1.30804 31.7908 0.92183 31.4155 0.735748C31.0403 0.549663 30.4532 0.316145 30.1115 0.216872C29.6415 0.0802997 29.2057 0.0288772 28.3272 0.0061984C27.5575 -0.0136561 26.9823 0.0142564 26.625 0.0889392ZM16.8685 4.04405C16.5052 4.16053 16.0666 4.43175 15.2493 5.04525C14.6328 5.50805 13.8985 5.9966 13.6176 6.13093C13.1896 6.33563 12.941 6.38845 12.0815 6.45757C11.5175 6.50285 10.7132 6.57013 10.294 6.60703C9.7347 6.65628 9.41095 6.73337 9.0768 6.89695C8.82647 7.01947 8.47 7.26687 8.28482 7.44672C8.09958 7.62657 7.85397 7.95937 7.73905 8.18625C7.62413 8.4132 7.383 9.20887 7.20315 9.95445C7.02338 10.7 6.79638 11.497 6.6988 11.7254C6.56245 12.0445 6.22185 12.437 5.22943 13.4186C4.22671 14.4103 3.88851 14.8008 3.71871 15.1631C3.53047 15.5648 3.5 15.7399 3.5 16.4199V17.2099L4.22572 18.7053C4.6746 19.6302 4.98531 20.3841 5.04028 20.6817C5.11061 21.0623 5.09824 21.4181 4.98108 22.3839C4.89962 23.0554 4.83303 23.8666 4.83294 24.1864C4.83294 24.5062 4.87919 24.9235 4.93574 25.1138C4.99237 25.3038 5.16226 25.6402 5.3133 25.8612C5.46433 26.0823 5.75338 26.3868 5.95556 26.5378C6.15775 26.6887 6.90755 27.0655 7.6219 27.375C8.33623 27.6845 9.10223 28.0675 9.32408 28.2262C9.62608 28.4422 9.95272 28.8478 10.623 29.8388C11.1154 30.5668 11.6386 31.2865 11.7854 31.4382C11.9324 31.59 12.288 31.8302 12.5758 31.9722C13.0178 32.19 13.1985 32.231 13.7383 32.2363C14.281 32.2415 14.5779 32.1802 15.706 31.8305C16.8828 31.4655 17.1199 31.4185 17.7818 31.4185C18.4438 31.4185 18.6809 31.4655 19.8577 31.8305C20.9761 32.1772 21.2854 32.2415 21.813 32.2365C22.2998 32.2318 22.5429 32.1833 22.9024 32.0185C23.1568 31.902 23.5217 31.665 23.7132 31.492C23.9047 31.319 24.4072 30.65 24.83 30.0058C25.2528 29.3612 25.7456 28.691 25.925 28.5165C26.1045 28.3418 26.4008 28.1125 26.5835 28.0072C26.7661 27.902 27.42 27.6017 28.0366 27.3403C28.653 27.0788 29.312 26.7587 29.5007 26.629C29.6897 26.4993 29.9478 26.2703 30.0742 26.1205C30.2007 25.9705 30.39 25.663 30.495 25.437C30.6 25.2113 30.7087 24.8374 30.737 24.6064C30.7662 24.3648 30.7155 23.5528 30.617 22.6948C30.4765 21.4723 30.462 21.1087 30.5368 20.6792C30.6007 20.3123 30.8407 19.7255 31.337 18.7232C32.0142 17.3553 32.0478 17.2615 32.084 16.6267C32.105 16.2612 32.0875 15.8313 32.0448 15.6714C31.988 15.4585 31.9245 15.3842 31.8078 15.3941C31.7203 15.4015 31.32 15.5253 30.9182 15.6694C30.4967 15.8206 29.782 15.9884 29.2275 16.0663C28.4104 16.1812 28.1286 16.1866 27.3421 16.1021C26.8335 16.0475 26.3177 15.9805 26.1959 15.9532C25.9765 15.9043 25.9752 15.9069 26.0513 16.2237C26.0936 16.3997 26.1611 16.8988 26.2012 17.3328C26.2422 17.7757 26.2432 18.4502 26.2035 18.8697C26.1646 19.2809 26.0541 19.9153 25.9578 20.2794C25.8615 20.6436 25.6586 21.2104 25.5069 21.5388C25.3552 21.8674 25.0642 22.3941 24.8604 22.7095C24.6565 23.0247 24.2552 23.5336 23.9685 23.8401C23.6819 24.1466 23.2002 24.5838 22.8981 24.8115C22.5959 25.0393 22.0311 25.3897 21.6429 25.5905C21.2547 25.791 20.6366 26.0495 20.2694 26.1647C19.9022 26.28 19.311 26.4148 18.9556 26.464C18.6003 26.5135 18.0721 26.554 17.7818 26.554C17.4916 26.554 16.9634 26.5135 16.6081 26.464C16.2527 26.4148 15.6615 26.2792 15.2942 26.1635C14.927 26.0475 14.365 25.8212 14.0453 25.6605C13.7256 25.4998 13.2488 25.2222 12.9856 25.0435C12.7225 24.865 12.266 24.493 11.9711 24.2171C11.6763 23.9411 11.2509 23.4661 11.0259 23.1617C10.801 22.8571 10.482 22.3614 10.3169 22.06C10.1519 21.7586 9.92153 21.2353 9.80485 20.897C9.6882 20.5587 9.53732 20.0016 9.46965 19.6589C9.40205 19.3162 9.34667 18.6059 9.34667 18.0805C9.34667 17.555 9.4008 16.8448 9.4669 16.5021C9.533 16.1594 9.66768 15.6398 9.76615 15.3475C9.86462 15.0552 10.0598 14.5878 10.1999 14.309C10.34 14.0303 10.6403 13.5326 10.8673 13.2032C11.0942 12.8737 11.5764 12.3209 11.9387 11.9746C12.301 11.6282 12.8566 11.1771 13.1733 10.9722C13.49 10.7671 14.0026 10.4854 14.3124 10.3459C14.6221 10.2065 15.2119 9.99973 15.6229 9.8865C16.1331 9.74585 16.6865 9.6656 17.3667 9.63338C17.9605 9.6053 18.6108 9.62498 18.9764 9.68223C19.3137 9.73497 19.6027 9.7652 19.6186 9.74935C19.6345 9.7334 19.5854 9.44255 19.5096 9.10295C19.4177 8.691 19.3724 8.11248 19.3738 7.36408C19.3751 6.61973 19.4229 6.03307 19.516 5.61952C19.5932 5.27685 19.6756 4.90302 19.6994 4.7888C19.7356 4.61385 19.6861 4.5463 19.3849 4.3604C19.1883 4.23895 18.8244 4.0801 18.5763 4.00733C18.3283 3.93455 17.9546 3.87708 17.746 3.87965C17.5374 3.88223 17.1425 3.95625 16.8685 4.04405ZM32.4123 4.30963C32.612 4.50935 32.7122 4.69725 32.7435 4.9301C32.7727 5.14875 32.7417 5.36233 32.6535 5.54843C32.5793 5.70485 31.406 6.94363 30.046 8.30138L27.5735 10.7701H27.1768C26.9586 10.7701 26.6985 10.7287 26.5987 10.6781C26.499 10.6275 25.8077 9.98263 25.0624 9.2451C24.3172 8.50747 23.654 7.8031 23.5886 7.67975C23.5231 7.5563 23.4697 7.32088 23.4697 7.15637C23.4697 6.9919 23.5276 6.74543 23.5983 6.6086C23.669 6.47178 23.8465 6.28685 23.9927 6.19772C24.1389 6.1085 24.4011 6.0354 24.5753 6.03522C24.7495 6.03507 24.9737 6.07635 25.0735 6.12703C25.1733 6.1777 25.6714 6.63112 26.1804 7.13462L27.1058 8.05017L29.0035 6.1169C30.0473 5.05355 31.0133 4.13228 31.1502 4.06955C31.2907 4.00525 31.558 3.97027 31.7628 3.9893C32.0403 4.01515 32.1935 4.09058 32.4123 4.30963ZM17.4207 13.2C17.3297 13.4398 17.03 14.2305 16.7545 14.957C16.4791 15.6836 16.2215 16.3103 16.1821 16.3498C16.1426 16.3893 15.2721 16.4635 14.2475 16.5147C13.2229 16.5659 12.338 16.6448 12.2809 16.6898C12.2238 16.7348 12.177 16.8221 12.177 16.8838C12.177 16.9453 12.8333 17.5231 13.6352 18.1677C14.4372 18.8122 15.1131 19.3909 15.1372 19.4537C15.1612 19.5164 14.969 20.3526 14.7099 21.3118C14.4509 22.271 14.2519 23.1228 14.2677 23.2048C14.2835 23.2867 14.3609 23.3662 14.44 23.3814C14.5189 23.3966 15.273 22.9578 16.1154 22.4063C16.958 21.8547 17.7116 21.4034 17.7902 21.4034C17.8688 21.4034 18.6205 21.8544 19.4606 22.4055C20.3007 22.9567 21.0513 23.3955 21.1286 23.3807C21.206 23.366 21.2807 23.2741 21.2947 23.1766C21.3086 23.0791 21.1124 22.2377 20.8587 21.3068C20.605 20.3759 20.3974 19.5693 20.3974 19.5144C20.3974 19.4594 21.0536 18.8871 21.8556 18.2426C22.6576 17.598 23.3353 17.0146 23.3615 16.9461C23.3879 16.8776 23.3575 16.7729 23.2942 16.7136C23.2136 16.638 22.6202 16.578 21.3162 16.5136C20.2916 16.463 19.4249 16.393 19.3903 16.358C19.3556 16.323 19.1556 15.8458 18.9459 15.2976C18.7361 14.7493 18.4323 13.9549 18.2706 13.5323C18.015 12.8644 17.951 12.7638 17.7814 12.7638C17.6223 12.7638 17.5556 12.8445 17.4207 13.2ZM27.5452 29.0125C27.1237 29.2235 26.858 29.4258 26.6402 29.7015C26.4706 29.916 26.0897 30.4825 25.7936 30.9605C25.4974 31.4383 25.0309 32.056 24.7569 32.3332C24.4354 32.6585 24.0468 32.943 23.6623 33.1348C23.3129 33.309 22.8316 33.4692 22.4998 33.5218C22.1884 33.5713 21.8339 33.6217 21.7122 33.634L21.4909 33.6567L22.4737 35.982C23.0842 37.4265 23.5196 38.3493 23.6231 38.418C23.7465 38.5 23.8328 38.5057 23.9552 38.4403C24.0464 38.3913 24.6317 37.529 25.2561 36.5238C26.2485 34.9263 26.414 34.701 26.5705 34.737C26.669 34.7595 27.5693 34.9463 28.5713 35.152C29.5733 35.3577 30.4905 35.5257 30.6098 35.5257C30.729 35.5257 30.8713 35.481 30.926 35.4263C30.981 35.3713 31.0268 35.2685 31.028 35.1978C31.0292 35.127 30.4222 33.6398 29.6787 31.893C28.9355 30.1462 28.2855 28.7162 28.2345 28.7155C28.1836 28.7145 27.8734 28.8483 27.5452 29.0125ZM6.25017 32.7503C5.10347 35.2215 4.54822 36.5073 4.58185 36.6133C4.6095 36.7008 4.69611 36.8063 4.77424 36.8483C4.86964 36.8993 5.59719 36.8042 6.98983 36.5585C8.13023 36.3573 9.10065 36.1925 9.1463 36.1922C9.19197 36.192 9.7151 37.0335 10.3088 38.062C11.1452 39.5112 11.4331 39.944 11.5879 39.9842C11.6977 40.013 11.8429 40.0013 11.9105 39.9588C11.9781 39.916 12.7062 38.4515 13.5285 36.7045C14.3508 34.9572 15.009 33.5145 14.9911 33.498C14.9733 33.4815 14.7172 33.5078 14.422 33.556C14.0331 33.6198 13.7014 33.6173 13.218 33.5475C12.769 33.4827 12.3605 33.3568 11.9695 33.162C11.6498 33.003 11.2088 32.7177 10.9895 32.5277C10.7434 32.3147 10.259 31.678 9.72423 30.8647C9.12845 29.9587 8.74983 29.469 8.51218 29.2965C8.32203 29.159 8.122 29.0462 8.0677 29.0462C8.0134 29.0462 7.19543 30.713 6.25017 32.7503Z" fill="#001887"/>
</svg>
