<svg width="41" height="40" viewBox="0 0 41 40" fill="none" xmlns="http://www.w3.org/2000/svg">
<g clip-path="url(#clip0_1_8921)">
<path d="M17.9637 33.7997L18.6348 34.0442L18.5293 34.3233L18.2517 34.4432L17.9637 33.7997ZM17.9637 33.7997C18.6348 34.0442 18.6349 34.0438 18.635 34.0435L18.6354 34.0427L18.6361 34.0406L18.6383 34.0346L18.6452 34.0158C18.6509 34.0001 18.6586 33.9783 18.668 33.9507C18.687 33.8955 18.7129 33.8168 18.7434 33.7166C18.8044 33.5162 18.8838 33.2293 18.9615 32.8716C19.1166 32.1577 19.2668 31.1545 19.2473 29.9921C19.2081 27.6606 18.4831 24.6692 15.7414 22.1266C13.2598 19.8253 9.66926 18.7876 6.79028 18.3115C5.33703 18.0712 4.03445 17.969 3.09475 17.927C2.62441 17.9059 2.24369 17.8998 1.97894 17.899C1.84652 17.8986 1.74298 17.8994 1.67169 17.9006C1.63603 17.9011 1.60841 17.9017 1.58924 17.9022L1.56685 17.9026L1.56053 17.9029L1.55857 17.9029C1.55833 17.9029 1.55745 17.9029 1.58005 18.6055M17.9637 33.7997C18.2517 34.4432 18.2513 34.4433 18.251 34.4434L18.2502 34.4438L18.2481 34.4447L18.2422 34.4472L18.2234 34.4551C18.2078 34.4615 18.1862 34.4703 18.1587 34.4812C18.1037 34.503 18.0252 34.533 17.9252 34.5688C17.7252 34.6403 17.4384 34.7349 17.0796 34.8319C16.3634 35.0256 15.3531 35.2312 14.1712 35.2796C11.8004 35.3766 8.71979 34.8386 5.97804 32.2959C3.49685 29.9947 2.23445 26.532 1.58359 23.7349C1.25505 22.3229 1.07569 21.0507 0.978273 20.1311C0.929534 19.6709 0.901185 19.2977 0.88499 19.038C0.876868 18.908 0.871784 18.8063 0.868722 18.7364C0.867192 18.7014 0.86614 18.6742 0.865488 18.6554L0.864758 18.6335L0.864576 18.6273L0.864514 18.6253C0.864517 18.6252 0.864489 18.6243 1.58005 18.6055M1.58005 18.6055L1.55745 17.9029L0.845513 17.925L0.864489 18.6243L1.58005 18.6055Z" fill="#001887"/>
<path d="M17.9637 33.7997L18.6348 34.0442L18.5293 34.3233L18.2517 34.4432L17.9637 33.7997ZM17.9637 33.7997C18.6348 34.0442 18.6349 34.0438 18.635 34.0435L18.6354 34.0427L18.6361 34.0406L18.6383 34.0346L18.6452 34.0158C18.6509 34.0001 18.6586 33.9783 18.668 33.9507C18.687 33.8955 18.7129 33.8168 18.7434 33.7166C18.8044 33.5162 18.8838 33.2293 18.9615 32.8716C19.1166 32.1577 19.2668 31.1545 19.2473 29.9921C19.2081 27.6606 18.4831 24.6692 15.7414 22.1266C13.2598 19.8253 9.66926 18.7876 6.79028 18.3115C5.33703 18.0712 4.03445 17.969 3.09475 17.927C2.62441 17.9059 2.24369 17.8998 1.97894 17.899C1.84652 17.8986 1.74298 17.8994 1.67169 17.9006C1.63603 17.9011 1.60841 17.9017 1.58924 17.9022L1.56685 17.9026L1.56053 17.9029L1.55857 17.9029C1.55833 17.9029 1.55745 17.9029 1.58005 18.6055M17.9637 33.7997C18.2517 34.4432 18.2513 34.4433 18.251 34.4434L18.2502 34.4438L18.2481 34.4447L18.2422 34.4472L18.2234 34.4551C18.2078 34.4615 18.1862 34.4703 18.1587 34.4812C18.1037 34.503 18.0252 34.533 17.9252 34.5688C17.7252 34.6403 17.4384 34.7349 17.0796 34.8319C16.3634 35.0256 15.3531 35.2312 14.1712 35.2796C11.8004 35.3766 8.71979 34.8386 5.97804 32.2959C3.49685 29.9947 2.23445 26.532 1.58359 23.7349C1.25505 22.3229 1.07569 21.0507 0.978273 20.1311C0.929534 19.6709 0.901185 19.2977 0.88499 19.038C0.876868 18.908 0.871784 18.8063 0.868722 18.7364C0.867192 18.7014 0.86614 18.6742 0.865488 18.6554L0.864758 18.6335L0.864576 18.6273L0.864514 18.6253C0.864517 18.6252 0.864489 18.6243 1.58005 18.6055M1.58005 18.6055L1.55745 17.9029L0.845512 17.925L0.864489 18.6243L1.58005 18.6055Z" stroke="white" stroke-width="1.82785"/>
<path d="M21.1742 34.1847L21.6418 35.0197L21.2815 35.2143L20.8886 35.0955L21.1742 34.1847ZM21.1742 34.1847C21.6418 35.0197 21.6422 35.0194 21.6427 35.0192L21.6437 35.0187L21.6464 35.0171L21.6541 35.013L21.6781 34.9997C21.698 34.9885 21.7256 34.9729 21.7602 34.9529C21.8295 34.9127 21.9272 34.8545 22.049 34.7783C22.2924 34.626 22.6329 34.4007 23.0355 34.1016C23.8392 33.5043 24.899 32.6061 25.9286 31.397C27.9935 28.9718 29.9508 25.2724 29.4347 20.2777C28.9675 15.757 26.222 11.5668 23.6992 8.57196C22.4258 7.06026 21.182 5.82156 20.2563 4.96026C19.7929 4.52916 19.408 4.19141 19.1372 3.96008C19.0018 3.84439 18.8948 3.75523 18.8207 3.69422C18.7836 3.66371 18.7548 3.64024 18.7347 3.624L18.7113 3.6051L18.7046 3.59976L18.7025 3.59813C18.7023 3.59792 18.7014 3.59719 18.0902 4.33741M21.1742 34.1847C20.8886 35.0955 20.8882 35.0952 20.8877 35.095L20.8865 35.0947L20.8836 35.0938L20.8752 35.0912L20.8489 35.0829C20.8271 35.076 20.7969 35.0662 20.7589 35.0534C20.6828 35.028 20.5752 34.9904 20.4403 34.9401C20.1707 34.8393 19.7911 34.6866 19.3355 34.4737C18.4261 34.0488 17.2043 33.38 15.9485 32.4006C13.4296 30.4361 10.7559 27.2024 10.2397 22.2075C9.77278 17.6872 11.6045 13.0368 13.4626 9.60129C14.4005 7.86715 15.3652 6.40619 16.0955 5.37827C16.4611 4.86374 16.769 4.45628 16.9869 4.1758C17.0959 4.03551 17.1824 3.92688 17.2425 3.85237C17.2726 3.81512 17.296 3.78639 17.3123 3.7665L17.3314 3.74332L17.3368 3.73677L17.3385 3.73476C17.3387 3.73451 17.3395 3.73361 18.0902 4.33741M18.0902 4.33741L18.7014 3.59719L17.9513 3L17.3395 3.73361L18.0902 4.33741Z" fill="#001887"/>
<path d="M21.1742 34.1847L21.6418 35.0197L21.2815 35.2143L20.8886 35.0955L21.1742 34.1847ZM21.1742 34.1847C21.6418 35.0197 21.6422 35.0194 21.6427 35.0192L21.6437 35.0187L21.6464 35.0171L21.6541 35.013L21.6781 34.9997C21.698 34.9885 21.7256 34.9729 21.7602 34.9529C21.8295 34.9127 21.9272 34.8545 22.049 34.7783C22.2924 34.626 22.6329 34.4007 23.0355 34.1016C23.8392 33.5043 24.899 32.6061 25.9286 31.397C27.9935 28.9718 29.9508 25.2724 29.4347 20.2777C28.9675 15.757 26.222 11.5668 23.6992 8.57196C22.4258 7.06026 21.182 5.82156 20.2563 4.96026C19.7929 4.52916 19.408 4.19141 19.1372 3.96008C19.0018 3.84439 18.8948 3.75523 18.8207 3.69422C18.7836 3.66371 18.7548 3.64024 18.7347 3.624L18.7113 3.6051L18.7046 3.59976L18.7025 3.59813C18.7023 3.59792 18.7014 3.59719 18.0902 4.33741M21.1742 34.1847C20.8886 35.0955 20.8882 35.0952 20.8877 35.095L20.8865 35.0947L20.8836 35.0938L20.8752 35.0912L20.8489 35.0829C20.8271 35.076 20.7969 35.0662 20.7589 35.0534C20.6828 35.028 20.5752 34.9904 20.4403 34.9401C20.1707 34.8393 19.7911 34.6866 19.3355 34.4737C18.4261 34.0488 17.2043 33.38 15.9485 32.4006C13.4296 30.4361 10.7559 27.2024 10.2397 22.2075C9.77278 17.6872 11.6045 13.0368 13.4626 9.60129C14.4005 7.86715 15.3652 6.40619 16.0955 5.37827C16.4611 4.86374 16.769 4.45628 16.9869 4.1758C17.0959 4.03551 17.1824 3.92688 17.2425 3.85237C17.2726 3.81512 17.296 3.78639 17.3123 3.7665L17.3314 3.74332L17.3368 3.73677L17.3385 3.73476C17.3387 3.73451 17.3395 3.73361 18.0902 4.33741M18.0902 4.33741L18.7014 3.59719L17.9513 3L17.3395 3.73361L18.0902 4.33741Z" stroke="white" stroke-width="2.46074"/>
<path d="M21.9376 33.0083L21.5867 33.6209L21.3224 33.4749L21.2453 33.1869L21.9376 33.0083ZM21.9376 33.0083C21.5867 33.6209 21.587 33.6211 21.5873 33.6213L21.5881 33.6217L21.5901 33.6228L21.5957 33.6258L21.6137 33.6355C21.6285 33.6434 21.6492 33.6543 21.6755 33.6678C21.7281 33.6947 21.8032 33.7322 21.8992 33.7775C22.0912 33.868 22.3674 33.9899 22.715 34.1212C23.4088 34.3833 24.3944 34.6859 25.5667 34.8488C27.918 35.1756 31.0403 34.9403 34.0267 32.679C36.7296 30.6323 38.3351 27.3123 39.2643 24.5946C39.7334 23.2228 40.0399 21.9754 40.2292 21.0706C40.324 20.6178 40.3896 20.2495 40.4319 19.9928C40.453 19.8645 40.4684 19.7639 40.4784 19.6946C40.4834 19.6599 40.4871 19.6331 40.4897 19.6144L40.4927 19.5926L40.4934 19.5864L40.4938 19.5845C40.4938 19.5843 40.4939 19.5834 39.7837 19.4955M21.9376 33.0083C21.2453 33.1869 21.2452 33.1866 21.2451 33.1862L21.2449 33.1854L21.2443 33.1832L21.2427 33.1771L21.2378 33.1576C21.2337 33.1415 21.2282 33.1192 21.2216 33.0908C21.2083 33.034 21.1903 32.9532 21.17 32.8506C21.1294 32.6455 21.0791 32.3525 21.0377 31.9894C20.9549 31.2645 20.9061 30.2524 21.0423 29.0986C21.3156 26.7841 22.3387 23.8805 25.3252 21.6192C28.0279 19.5728 31.7084 18.8901 34.6237 18.6965C36.0953 18.5987 37.403 18.6238 38.3433 18.6732C38.8138 18.6979 39.1936 18.7288 39.4574 18.7537C39.5894 18.7661 39.6924 18.7771 39.7633 18.7851C39.7987 18.7891 39.8263 18.7923 39.8452 18.7946L39.8674 18.7973L39.8737 18.7981L39.8756 18.7984C39.8758 18.7984 39.8767 18.7985 39.7837 19.4955M39.7837 19.4955L40.4939 19.5834L40.583 18.8895L39.8767 18.7985L39.7837 19.4955Z" fill="#001887"/>
<path d="M21.9376 33.0083L21.5867 33.6209L21.3224 33.4749L21.2453 33.1869L21.9376 33.0083ZM21.9376 33.0083C21.5867 33.6209 21.587 33.6211 21.5873 33.6213L21.5881 33.6217L21.5901 33.6228L21.5957 33.6258L21.6137 33.6355C21.6285 33.6434 21.6492 33.6543 21.6755 33.6678C21.7281 33.6947 21.8032 33.7322 21.8992 33.7775C22.0912 33.868 22.3674 33.9899 22.715 34.1212C23.4088 34.3833 24.3944 34.6859 25.5667 34.8488C27.918 35.1756 31.0403 34.9403 34.0267 32.679C36.7296 30.6323 38.3351 27.3123 39.2643 24.5946C39.7334 23.2228 40.0399 21.9754 40.2292 21.0706C40.324 20.6178 40.3896 20.2495 40.4319 19.9928C40.453 19.8645 40.4684 19.7639 40.4784 19.6946C40.4834 19.6599 40.4871 19.6331 40.4897 19.6144L40.4927 19.5926L40.4934 19.5864L40.4938 19.5845C40.4938 19.5843 40.4939 19.5834 39.7837 19.4955M21.9376 33.0083C21.2453 33.1869 21.2452 33.1866 21.2451 33.1862L21.2449 33.1854L21.2443 33.1832L21.2427 33.1771L21.2378 33.1577C21.2337 33.1415 21.2282 33.1192 21.2216 33.0908C21.2083 33.034 21.1903 32.9532 21.17 32.8506C21.1294 32.6455 21.0791 32.3525 21.0377 31.9894C20.9549 31.2645 20.9061 30.2524 21.0423 29.0986C21.3156 26.7841 22.3387 23.8805 25.3252 21.6192C28.0279 19.5728 31.7084 18.8901 34.6237 18.6965C36.0953 18.5987 37.403 18.6238 38.3433 18.6732C38.8138 18.6979 39.1936 18.7288 39.4574 18.7537C39.5894 18.7661 39.6924 18.7771 39.7633 18.7851C39.7987 18.7891 39.8263 18.7923 39.8452 18.7946L39.8674 18.7973L39.8737 18.7981L39.8756 18.7984C39.8758 18.7984 39.8767 18.7985 39.7837 19.4955M39.7837 19.4955L40.4939 19.5834L40.583 18.8895L39.8767 18.7985L39.7837 19.4955Z" stroke="white" stroke-width="1.82785"/>
</g>
<defs>
<clipPath id="clip0_1_8921">
<rect width="40" height="40" fill="white" transform="translate(0.583984)"/>
</clipPath>
</defs>
</svg>
