<svg width="40" height="40" viewBox="0 0 40 40" fill="none" xmlns="http://www.w3.org/2000/svg">
<path fill-rule="evenodd" clip-rule="evenodd" d="M37.3679 17.7571C37.3679 18.2111 37.1562 18.4539 36.7323 18.4539H34.7059V17.0292C34.7059 15.9693 34.5543 15.4236 33.6464 15.4236H32.738C31.8313 15.4236 31.6793 15.9693 31.6793 17.0292V18.4539H30.2579C29.1992 18.4539 28.6539 18.6053 28.6539 19.5142V20.4836C28.6539 21.3929 29.1992 21.5447 30.2579 21.5447H31.6793V22.9686C31.6793 24.0293 31.8313 24.5746 32.738 24.5746H33.6464C34.5543 24.5746 34.7059 24.0293 34.7059 22.9686V21.5447H36.7323C37.1263 21.5447 37.3377 21.7568 37.3679 22.1506V26.7563C37.3679 27.8776 37.0348 28.7258 36.2483 29.4836L29.5009 36.241C28.7143 37.0287 27.8371 37.3922 26.7481 37.3922H13.2524C12.1638 37.3922 11.2866 37.0287 10.4993 36.241L3.75225 29.4836C2.96574 28.6956 2.60155 27.8776 2.63259 26.7563V13.3934C2.63259 12.2721 2.99639 11.3022 3.81275 10.4847L10.6808 3.51484C11.3769 2.81806 12.2542 2.60599 13.2524 2.60599H26.7481C27.7459 2.60599 28.6232 2.81806 29.3194 3.51484L36.1878 10.4847C36.9747 11.3022 37.3679 12.2721 37.3679 13.3934V17.7571ZM31.1646 1.75751C29.9848 0.606298 28.503 0 26.717 0H13.2827C11.4975 0 9.9846 0.606298 8.83549 1.75751L1.72427 8.84813C0.605803 9.96944 0 11.4543 0 13.0906V26.7565C0 28.6351 0.635655 30.0897 1.90617 31.3322L8.65398 38.0896C9.9846 39.4225 11.4677 40.0288 13.3742 39.9989H26.6271C28.4723 39.9989 29.9848 39.4528 31.3465 38.0896L38.0939 31.3322C39.3346 30.0897 40.0001 28.6048 40.0001 26.7565V13.0906C40.0001 11.4543 39.3955 9.96944 38.2754 8.84813L31.1646 1.75751Z" fill="#D1D1D1"/>
<path fill-rule="evenodd" clip-rule="evenodd" d="M21.8759 26.8477C19.9403 26.8477 19.2437 26.0903 19.2437 24.1813C19.2437 22.2723 19.9403 21.3934 21.8759 21.3934C23.8127 21.3934 24.5089 22.2723 24.5089 24.1813C24.5089 26.0903 23.8127 26.8477 21.8759 26.8477ZM21.8759 13.303C23.5409 13.303 24.2064 13.9089 24.2064 15.9395C24.2064 17.9087 23.5409 18.5756 21.8759 18.5756C20.2125 18.5756 19.5466 17.9087 19.5466 15.9395C19.5466 13.9089 20.2125 13.303 21.8759 13.303ZM25.4466 19.8181C27.141 18.5756 27.1709 17.3028 27.1709 16.2728V15.2423C26.9898 11.8182 25.8399 10.5151 21.8759 10.5151C17.9127 10.5151 16.7632 11.8182 16.5813 15.2423V16.2728C16.5813 17.3028 16.6115 18.5756 18.306 19.8181C16.2788 20.6058 16.1279 22.333 16.1279 24.6055C16.1279 27.969 17.3073 29.6361 21.8759 29.7265C26.4449 29.6361 27.6254 27.969 27.6254 24.6055C27.6254 22.333 27.4742 20.6058 25.4466 19.8181Z" fill="#D1D1D1"/>
<path fill-rule="evenodd" clip-rule="evenodd" d="M12.2895 10.8481H9.53589C8.47752 10.8481 7.93262 11.0299 7.93262 11.9085V12.9086C7.93262 13.7872 8.47752 13.9689 9.53589 13.9689H10.1715C10.5648 13.9689 10.7459 14.181 10.7459 14.7869V27.8775C10.7459 28.9378 10.9278 29.4835 11.8055 29.4835H12.8336C13.7116 29.4835 13.8935 28.9378 13.8935 27.8775V11.9085C13.8935 11.0299 13.3482 10.8481 12.2895 10.8481Z" fill="#D1D1D1"/>
</svg>
