<svg width="16" height="17" viewBox="0 0 16 17" fill="none" xmlns="http://www.w3.org/2000/svg">
<path d="M4.61256 11.8525C5.37534 12.6208 6.19869 13.3267 7.07468 13.9634C7.87919 14.5574 8.74922 15.0575 9.66775 15.4538C10.4395 15.798 11.2726 15.9837 12.1177 16C12.619 16.002 13.1158 15.9046 13.579 15.7135C14.0494 15.5135 14.4686 15.2103 14.8053 14.8264C15.0099 14.5973 15.1802 14.3399 15.3109 14.0621C15.4332 13.8078 15.4978 13.5297 15.5 13.2477C15.4999 13.0427 15.4565 12.8401 15.3725 12.6531C15.2804 12.4528 15.133 12.2829 14.9476 12.1632L12.4802 10.4184C12.3186 10.2967 12.1423 10.1958 11.9556 10.118C11.8088 10.0579 11.652 10.0259 11.4933 10.0237C11.3058 10.0249 11.1221 10.0766 10.9617 10.1734C10.7678 10.2912 10.5898 10.4331 10.4318 10.5958L9.85161 11.1592C9.81244 11.201 9.76479 11.2339 9.71185 11.2559C9.65891 11.2778 9.6019 11.2882 9.5446 11.2865C9.48348 11.2866 9.42278 11.2763 9.36508 11.2562C9.30727 11.236 9.2587 11.2169 9.21938 11.199C8.87652 10.9954 8.55338 10.7605 8.25414 10.4971C7.86098 10.1665 7.46494 9.80415 7.06601 9.41006C6.66707 9.01597 6.30225 8.6213 5.97154 8.22605C5.70564 7.93158 5.47298 7.60883 5.27774 7.26362C5.25266 7.21525 5.23093 7.16522 5.2127 7.11389C5.19309 7.05828 5.18312 6.99974 5.18321 6.94079C5.18187 6.8849 5.19246 6.82936 5.2143 6.77788C5.23613 6.7264 5.26869 6.68014 5.30983 6.64219L5.87441 6.06317C6.03673 5.90184 6.1791 5.72169 6.29849 5.52656C6.39635 5.36395 6.4482 5.1779 6.44852 4.98822C6.44538 4.83105 6.41212 4.67593 6.35053 4.53124C6.27174 4.34484 6.17194 4.16801 6.05306 4.00415L4.31856 1.58075C4.19082 1.39455 4.01612 1.24528 3.81209 1.148C3.61604 1.05289 3.4013 1.00234 3.18333 1C2.89175 1.00764 2.60457 1.07275 2.3383 1.19158C2.07203 1.31041 1.83193 1.48062 1.63182 1.6924C1.25555 2.04071 0.961163 2.4678 0.769779 2.94305C0.588727 3.40609 0.497208 3.89918 0.500065 4.39622C0.514838 5.23896 0.69824 6.07025 1.03949 6.84125C1.42931 7.75006 1.92255 8.61111 2.50948 9.40746C3.14312 10.2779 3.84645 11.0956 4.61256 11.8525Z" fill="white"/>
</svg>
