<svg width="40" height="40" viewBox="0 0 40 40" fill="none" xmlns="http://www.w3.org/2000/svg">
<circle cx="20" cy="20" r="20" fill="#4680C2"/>
<path fill-rule="evenodd" clip-rule="evenodd" d="M19.7949 25.5861H20.9417C20.9417 25.5861 21.2885 25.5492 21.4663 25.3685C21.6287 25.2019 21.6238 24.8895 21.6238 24.8895C21.6238 24.8895 21.6011 23.4092 22.3157 23.1932C23.0205 22.9811 23.9252 24.6084 24.884 25.2348C25.6093 25.708 26.1607 25.5861 26.1607 25.5861L28.7243 25.5884C28.7243 25.5884 30.0654 25.4912 29.4291 24.4888C29.3775 24.4069 29.0592 23.7471 27.5227 22.3919C25.9153 20.9727 26.1301 21.2024 28.0674 18.7487C29.2468 17.2539 29.7181 16.3413 29.5709 15.9508C29.4303 15.5788 28.5689 15.6431 28.5689 15.6431L25.6761 15.6415C25.6761 15.6415 25.4613 15.6223 25.3029 15.7125C25.1479 15.8007 25.0485 16.0296 25.0485 16.0296C25.0485 16.0296 24.5912 17.2073 23.9817 18.1913C22.6968 20.2663 22.1825 20.3757 21.9718 20.2471C21.4832 19.9468 21.6056 19.0404 21.6056 18.3963C21.6056 16.3856 21.9265 15.5467 20.9805 15.3299C20.6667 15.2577 20.4362 15.2103 19.6329 15.2029C18.6028 15.1919 17.731 15.2052 17.2378 15.4353C16.9092 15.5886 16.6556 15.9285 16.8102 15.9485C17.0007 15.9732 17.4329 16.0594 17.6622 16.3558C17.9582 16.7388 17.9479 17.5977 17.9479 17.5977C17.9479 17.5977 18.1182 19.9652 17.5508 20.2592C17.1616 20.4607 16.6275 20.0495 15.4816 18.1666C14.8944 17.2018 14.4511 16.1163 14.4511 16.1163C14.4511 16.1163 14.3657 15.9163 14.2131 15.8101C14.0284 15.6811 13.7698 15.64 13.7698 15.64L11.0263 15.6407C11.0263 15.6407 10.6144 15.6513 10.4631 15.8223C10.3286 15.9736 10.4523 16.2868 10.4523 16.2868C10.4523 16.2868 12.6004 21.1001 15.0321 23.5072C17.2626 25.7147 19.7949 25.5861 19.7949 25.5861Z" fill="white"/>
</svg>
