<svg width="16" height="17" viewBox="0 0 16 17" fill="none" xmlns="http://www.w3.org/2000/svg">
<g clip-path="url(#clip0_2007_1938)">
<path d="M15.8702 4.49407L11.7369 8.72341C11.7296 8.73038 11.7238 8.73876 11.7198 8.74804C11.7158 8.75732 11.7138 8.76731 11.7138 8.77741C11.7138 8.7875 11.7158 8.79749 11.7198 8.80677C11.7238 8.81605 11.7296 8.82443 11.7369 8.83141L14.6329 11.9261C14.6818 11.972 14.721 12.0273 14.7481 12.0887C14.7753 12.1501 14.7898 12.2163 14.7909 12.2834C14.792 12.3505 14.7796 12.4171 14.7544 12.4794C14.7293 12.5416 14.6919 12.5981 14.6445 12.6456C14.597 12.6931 14.5406 12.7306 14.4784 12.7559C14.4162 12.7812 14.3496 12.7937 14.2825 12.7928C14.2154 12.7918 14.1492 12.7774 14.0877 12.7503C14.0263 12.7233 13.9709 12.6842 13.9249 12.6354L11.0409 9.55274C11.0336 9.54532 11.0248 9.53943 11.0152 9.53541C11.0056 9.53139 10.9953 9.52932 10.9849 9.52932C10.9745 9.52932 10.9641 9.53139 10.9545 9.53541C10.9449 9.53943 10.9362 9.54532 10.9289 9.55274L10.2249 10.2701C9.93749 10.5648 9.59416 10.7992 9.215 10.9594C8.83585 11.1197 8.42851 11.2026 8.01688 11.2034C7.59614 11.2016 7.18003 11.1156 6.79304 10.9505C6.40605 10.7854 6.05601 10.5445 5.76354 10.2421L5.08621 9.55141C5.07889 9.54399 5.07017 9.5381 5.06056 9.53408C5.05095 9.53006 5.04063 9.52799 5.03021 9.52799C5.01979 9.52799 5.00947 9.53006 4.99986 9.53408C4.99025 9.5381 4.98153 9.54399 4.97421 9.55141L2.08488 12.6354C2.03883 12.6842 1.98345 12.7233 1.92202 12.7503C1.86059 12.7774 1.79436 12.7918 1.72725 12.7928C1.66014 12.7937 1.59353 12.7812 1.53135 12.7559C1.46918 12.7306 1.41271 12.6931 1.3653 12.6456C1.31788 12.5981 1.28049 12.5416 1.25534 12.4794C1.23018 12.4171 1.21778 12.3505 1.21886 12.2834C1.21994 12.2163 1.23448 12.1501 1.26162 12.0887C1.28877 12.0273 1.32796 11.972 1.37688 11.9261L4.27421 8.83007C4.28716 8.81506 4.29428 8.7959 4.29428 8.77607C4.29428 8.75625 4.28716 8.73708 4.27421 8.72207L0.131543 4.49407C0.121128 4.48202 0.107192 4.47355 0.0917018 4.46985C0.0762119 4.46615 0.0599513 4.46741 0.0452162 4.47345C0.0304811 4.4795 0.0180161 4.49001 0.00958153 4.50352C0.00114695 4.51703 -0.00283114 4.53285 -0.00179072 4.54874V13.0101C-0.00144138 13.3367 0.128203 13.65 0.358808 13.8813C0.589413 14.1127 0.902224 14.2433 1.22888 14.2447H14.7702C15.0969 14.2433 15.4097 14.1127 15.6403 13.8813C15.8709 13.65 16.0005 13.3367 16.0009 13.0101V4.54741C16.0004 4.5325 15.9956 4.51805 15.987 4.50582C15.9785 4.49358 15.9666 4.48407 15.9528 4.47843C15.939 4.47279 15.9239 4.47127 15.9092 4.47405C15.8945 4.47682 15.881 4.48378 15.8702 4.49407Z" fill="white"/>
<path d="M8.00165 10.0458C8.28076 10.0472 8.55742 9.99357 8.81574 9.88786C9.07407 9.78215 9.30897 9.62647 9.50698 9.42975L15.5496 3.42975C15.3327 3.25748 15.064 3.16351 14.787 3.16309H1.22165C0.944538 3.16288 0.675592 3.25692 0.458984 3.42975L6.50165 9.42975C6.90035 9.82563 7.4398 10.0472 8.00165 10.0458Z" fill="white"/>
</g>
<defs>
<clipPath id="clip0_2007_1938">
<rect width="16" height="16" fill="white" transform="translate(0 0.5)"/>
</clipPath>
</defs>
</svg>
