<svg width="40" height="40" viewBox="0 0 40 40" fill="none" xmlns="http://www.w3.org/2000/svg">
<circle cx="20" cy="20" r="20" fill="#F7931E"/>
<path fill-rule="evenodd" clip-rule="evenodd" d="M20.3596 14.4929C21.3869 14.4929 22.2194 15.2664 22.2194 16.2208C22.2194 17.1759 21.3869 17.9503 20.3596 17.9503C19.3324 17.9503 18.4995 17.1759 18.4995 16.2208C18.4995 15.2664 19.3324 14.4929 20.3596 14.4929ZM20.3596 20.4424C22.8682 20.4424 24.9014 18.5524 24.9014 16.2208C24.9014 13.8895 22.8682 12 20.3596 12C17.8511 12 15.8179 13.8895 15.8179 16.2208C15.8179 18.5524 17.8511 20.4424 20.3596 20.4424ZM23.863 23.1754C24.3084 23.0309 24.625 22.8542 24.8542 22.6714C25.2926 22.4902 25.6002 22.0831 25.6002 21.6084C25.6002 20.9643 25.038 20.4424 24.3453 20.4424C24.3347 20.4424 24.3256 20.4448 24.3154 20.4448C24.3072 20.4448 24.3035 20.4424 24.2965 20.4424C23.6035 20.4424 23.2573 20.6834 23.2573 20.6834C23.2573 20.6834 21.7868 21.4069 20.2301 21.4069C18.6721 21.4069 17.8938 20.8442 17.3754 20.6032C17.293 20.5649 17.1769 20.5323 17.0428 20.5067C16.9169 20.468 16.7857 20.4424 16.6463 20.4424C16.5421 20.4424 16.442 20.4574 16.3461 20.4798C15.7244 20.5417 15.1076 20.8576 15.2118 21.7281C15.3852 23.1754 18.4995 23.6583 18.4995 23.6583L15.9048 25.9896L15.9914 26.1622C15.888 26.3397 15.8232 26.5392 15.8232 26.7538C15.8232 27.4418 16.4248 28 17.165 28C17.7273 28 18.2083 27.6771 18.4068 27.2199L20.4023 25.4265L22.9116 27.7582L23.0445 27.6963C23.058 27.7065 23.0712 27.7162 23.0843 27.7264V27.8392L23.1573 27.7822C23.3726 27.919 23.6322 28 23.9127 28C24.6537 28 25.2541 27.4418 25.2541 26.7538C25.2541 26.2131 24.8809 25.7567 24.3634 25.5841L22.2239 23.662C22.2534 23.6652 22.465 23.6302 23.863 23.1754Z" fill="white"/>
</svg>
