<svg width="49" height="50" viewBox="0 0 49 50" fill="none" xmlns="http://www.w3.org/2000/svg">
<rect y="0.5" width="49" height="49" rx="24.5" fill="#22B3FF"/>
<path fill-rule="evenodd" clip-rule="evenodd" d="M23.834 19.8726C23.834 15.743 20.83 12.6552 16.166 12.6552C11.498 12.6552 8.49805 15.745 8.49805 19.8726C8.49805 24.0001 11.498 27.0879 16.166 27.0879C20.834 27.0879 23.834 24.0021 23.834 19.8726ZM20.0168 19.8726C20.0168 22.2497 18.3888 23.8161 16.1668 23.8161C13.9768 23.8161 12.3488 22.1655 12.3488 19.8726C12.3488 17.4858 14.0388 15.9565 16.1668 15.9565C18.3588 15.9565 20.0168 17.5484 20.0168 19.8726Z" fill="white"/>
<path fill-rule="evenodd" clip-rule="evenodd" d="M29.6061 14.3058C30.4821 13.3895 32.1421 12.6552 33.9561 12.6552C37.8381 12.6552 40.3421 15.5923 40.3421 19.6572C40.3421 23.8474 37.4001 27.0879 32.8921 27.0879C31.6401 27.0879 30.4201 26.8745 29.6061 26.4163V32.8681H21.2441V29.3436H26.0061V12.992H29.6061V14.3058ZM29.6066 23.0211C30.5806 23.634 31.3806 23.8161 32.5806 23.8161C35.0846 23.8161 36.5246 22.0538 36.5246 19.7492C36.5246 17.5484 35.2086 15.9584 32.8306 15.9584C31.6066 15.9584 30.4826 16.5086 29.6066 17.4563V23.0211Z" fill="white"/>
<path d="M22.9774 37.0249C20.3974 37.0249 18.2974 35.1726 18.2974 32.868H14.7354C14.7354 37.0876 18.4314 40.522 22.9774 40.522V37.0249Z" fill="white"/>
</svg>
