<svg width="222" height="49" viewBox="0 0 222 49" fill="none" xmlns="http://www.w3.org/2000/svg">
<path fill-rule="evenodd" clip-rule="evenodd" d="M23.9275 11.7309C23.9275 4.64616 18.7759 0 11.9512 0C4.88949 0 0 5.13304 0 11.7309C0 18.8135 5.12642 23.4618 11.9512 23.4618C18.7759 23.4618 23.9275 18.5534 23.9275 11.7309ZM19.6628 11.7308C19.6628 16.2147 16.7736 19.7248 11.9512 19.7248C7.64456 19.7248 4.26469 16.2792 4.26469 11.7308C4.26469 7.01809 7.54811 3.74518 11.9512 3.74518C16.2745 3.74518 19.6544 7.01809 19.6628 11.7308Z" fill="#2D2D2D"/>
<path fill-rule="evenodd" clip-rule="evenodd" d="M30.6119 8.48092H26.8379V29.6227H30.6119V22.7565C31.4653 23.2434 32.7443 23.4722 34.0568 23.4722C38.7828 23.4722 41.867 20.0162 41.867 15.5656C41.867 11.2441 39.2419 8.12305 35.1722 8.12305C33.2705 8.12305 31.5303 8.9033 30.6119 9.87914V8.48092ZM30.6119 19.1424V13.2249C31.5324 12.2178 32.7086 11.6332 33.9918 11.6353C36.4847 11.6353 37.8644 13.3248 37.8644 15.6655C37.8644 18.102 36.3548 19.9871 33.7297 19.9871C32.4822 19.9871 31.6288 19.7915 30.6119 19.1424Z" fill="#2D2D2D"/>
<path fill-rule="evenodd" clip-rule="evenodd" d="M44.9699 19.6272H43.0996V26.508H46.6095V23.0957H57.0867V26.5163H60.6301V19.6272H58.1685V8.48096H47.2657L47.0372 11.9911C46.8401 15.3056 46.0182 18.2622 44.9699 19.6272ZM54.3861 19.6271H48.9074C49.5637 18.7262 50.3835 16.5727 50.6791 13.485L50.7777 11.991H54.3861V19.6271Z" fill="#2D2D2D"/>
<path d="M63.0186 23.0957V8.48096H66.7926V17.7421L73.6844 8.48096H77.4585V23.0957H73.6844V13.8429L66.7905 23.0957H63.0186Z" fill="#2D2D2D"/>
<path d="M91.4393 17.5153H84.9752V23.0957H81.2012V8.48096H84.9752V14.0052H91.4393V8.48096H95.2134V23.0957H91.4393V17.5153Z" fill="#2D2D2D"/>
<path fill-rule="evenodd" clip-rule="evenodd" d="M104.377 8.11426C102.547 8.14395 100.754 8.62747 99.1607 9.5208L100.113 12.2423C100.151 12.2252 100.189 12.208 100.227 12.1908C101.271 11.7177 102.336 11.2353 103.983 11.2353C106.183 11.2353 106.839 12.5752 106.749 15.0034C106.019 14.477 104.706 14.0608 103.394 14.0608C100.406 14.0608 98.0117 15.5881 98.0117 18.8048C98.0117 21.6262 99.947 23.2907 102.639 23.2907C104.639 23.2907 106.214 22.5105 107.002 21.4057V23.0952H110.286V14.2003C110.286 10.3323 108.74 8.11426 104.377 8.11426ZM106.74 17.3192V18.8132C106.281 19.4644 105.463 20.1469 103.882 20.1469C102.704 20.1469 101.786 19.5289 101.786 18.4241C101.786 17.1902 102.901 16.6035 104.147 16.6035C105.231 16.6035 106.084 16.8324 106.74 17.3192Z" fill="#2D2D2D"/>
<path d="M112.264 8.48096H125.716V12.2262H120.894V23.0957H117.12V12.2179H112.264V8.48096Z" fill="#2D2D2D"/>
<path d="M176.504 20.9276C175.246 22.5921 173.026 23.4618 170.633 23.4618C165.842 23.4618 162.626 20.4074 162.626 15.7924C162.626 11.5354 165.771 8.12305 170.271 8.12305C172.701 8.12305 174.833 8.74725 176.21 10.1059L174.445 13.0626C173.33 11.991 172.116 11.6332 170.77 11.6332C169.664 11.6265 168.603 12.0658 167.829 12.8504C167.056 13.635 166.637 14.6975 166.668 15.7945C166.668 18.3933 168.702 19.9871 170.933 19.9871C172.541 19.9871 173.789 19.238 174.741 18.1998L176.504 20.9276Z" fill="#2D2D2D"/>
<path fill-rule="evenodd" clip-rule="evenodd" d="M193.592 23.0957L187.235 15.4346L192.896 8.48096H188.149L182.832 15.728L188.671 23.0957H193.592ZM182.7 8.48098H178.926V23.0957H182.7V8.48098Z" fill="#2D2D2D"/>
<path fill-rule="evenodd" clip-rule="evenodd" d="M200.674 8.11426C198.844 8.14368 197.051 8.62723 195.458 9.5208L196.407 12.2423C196.447 12.2246 196.486 12.2069 196.525 12.1891C197.571 11.7165 198.635 11.2353 200.28 11.2353C202.479 11.2353 203.136 12.5752 203.043 15.0034C202.314 14.477 201.001 14.0608 199.689 14.0608C196.703 14.0608 194.309 15.5881 194.309 18.8048C194.309 21.6262 196.244 23.2907 198.934 23.2907C200.936 23.2907 202.511 22.5105 203.299 21.4057V23.0952H206.581V14.1919C206.581 10.3239 205.037 8.11426 200.674 8.11426ZM203.037 17.3192V18.8132C202.578 19.4644 201.756 20.1469 200.179 20.1469C199.001 20.1469 198.083 19.5289 198.083 18.4241C198.083 17.1902 199.198 16.6035 200.444 16.6035C201.528 16.6035 202.381 16.8324 203.037 17.3192Z" fill="#2D2D2D"/>
<path fill-rule="evenodd" clip-rule="evenodd" d="M222 23.0955V8.48075L217.165 8.46826C211.86 8.46826 209.826 10.8423 209.826 13.67C209.826 16.0752 211.401 17.4402 212.68 17.8937L208.742 23.0955H213.074L216.129 18.726H218.226V23.0955H222ZM218.226 15.9545H216.257C215.076 15.9545 213.862 15.1431 213.858 13.9404C213.858 12.8356 214.709 11.7307 216.548 11.7307H218.226V15.9545Z" fill="#2D2D2D"/>
<path fill-rule="evenodd" clip-rule="evenodd" d="M75.7405 41.3304C75.7405 36.9443 72.5913 33.6631 67.7018 33.6631C62.8123 33.6631 59.6631 36.9422 59.6631 41.3304C59.6631 45.7186 62.8081 48.9998 67.7018 48.9998C72.5955 48.9998 75.7405 45.7165 75.7405 41.3304ZM71.738 41.3304C71.738 43.8585 70.0312 45.523 67.7018 45.523C65.4164 45.523 63.6992 43.769 63.6992 41.3304C63.6992 38.7941 65.4709 37.1691 67.7018 37.1691C69.9977 37.1691 71.738 38.8607 71.738 41.3304Z" fill="#2D2D2D"/>
<path d="M88.8495 43.0534H82.3854V48.6421H78.6113V34.019H82.3854V39.5433H88.8495V34.019H92.6235V48.6421H88.8495V43.0534Z" fill="#2D2D2D"/>
<path d="M105.917 37.7559H102.011L101.912 39.3165C101.191 47.2771 99.2221 48.9354 95.253 48.9354L94.9238 45.2963C96.2028 45.4253 97.9431 44.2227 98.2785 38.5695L98.5092 34.019H109.697V48.6421H105.923L105.917 37.7559Z" fill="#2D2D2D"/>
<path fill-rule="evenodd" clip-rule="evenodd" d="M118.857 33.6631C117.028 33.6896 115.235 34.1695 113.64 35.0592L114.597 37.7891C114.639 37.7702 114.681 37.7512 114.723 37.7323C115.764 37.2626 116.829 36.782 118.469 36.782C120.667 36.782 121.323 38.1137 121.224 40.5501C120.495 40.0258 119.182 39.6097 117.87 39.6097C114.884 39.6097 112.487 41.1369 112.487 44.3536C112.487 47.1729 114.425 48.8375 117.115 48.8375C119.117 48.8375 120.692 48.0572 121.478 46.9524V48.6419H124.763V39.7387C124.763 35.8728 123.222 33.6631 118.857 33.6631ZM121.22 42.8619V44.3537H121.216C120.757 45.0029 119.931 45.6854 118.362 45.6895C117.184 45.6895 116.266 45.0716 116.266 43.9667C116.266 42.7329 117.381 42.1482 118.629 42.1482C119.71 42.1482 120.564 42.375 121.22 42.8619Z" fill="#2D2D2D"/>
<path d="M142.366 40.0176C139.981 40.0203 137.658 39.2672 135.734 37.8683L131.711 43.2781V34.019H127.937V48.6421H131.711L138.602 39.381V48.6421H142.376V40.0176H142.366Z" fill="#2D2D2D"/>
<path d="M155.785 43.0534H149.31V48.6421H145.536V34.019H149.31V39.5433H155.785V34.019H159.559V48.6421H155.785V43.0534Z" fill="#2D2D2D"/>
<path fill-rule="evenodd" clip-rule="evenodd" d="M143.275 15.7836C143.275 11.3976 140.124 8.11426 135.236 8.11426C130.343 8.11426 127.191 11.4017 127.191 15.792C127.191 20.1822 130.343 23.453 135.236 23.453C140.13 23.453 143.275 20.1697 143.275 15.7836ZM139.27 15.7816C139.27 18.3096 137.566 19.9741 135.236 19.9741V19.9845C132.93 19.9845 131.228 18.2284 131.232 15.7816C131.232 13.2452 133.003 11.6202 135.236 11.6202C137.532 11.6202 139.27 13.3118 139.27 15.7816Z" fill="#22B3FF"/>
<path fill-rule="evenodd" clip-rule="evenodd" d="M149.322 9.87035C150.24 8.89451 151.978 8.11426 153.882 8.11426C157.95 8.11426 160.575 11.2353 160.575 15.5569C160.575 20.0074 157.491 23.453 152.767 23.453C151.454 23.453 150.173 23.2242 149.322 22.7373V29.6035H140.556V25.8583H145.548V8.48046H149.322V9.87035ZM149.322 19.1294C150.341 19.7786 151.192 19.9741 152.438 19.9741L152.429 19.9845C155.063 19.9845 156.572 18.1015 156.572 15.663C156.572 13.3222 155.195 11.6327 152.7 11.6327C151.419 11.6327 150.24 12.2174 149.322 13.2244V19.1294Z" fill="#22B3FF"/>
<path d="M142.366 34.0193C139.661 34.0193 137.468 32.0427 137.468 29.6021H133.731C133.731 34.088 137.608 37.7354 142.374 37.7354L142.366 34.0193Z" fill="#22B3FF"/>
</svg>
