<svg width="30" height="30" viewBox="0 0 30 30" fill="none" xmlns="http://www.w3.org/2000/svg">
<path fill-rule="evenodd" clip-rule="evenodd" d="M4.50391 1.08926C4.40052 1.11423 4.20313 1.18801 4.06527 1.25324C3.92741 1.31853 3.70114 1.48489 3.56246 1.6229C3.42379 1.76097 3.2405 2.01434 3.15515 2.186L3 2.49811V15.0135V27.5289L3.14143 27.8119C3.2192 27.9674 3.36514 28.194 3.46571 28.3155C3.56628 28.437 3.8269 28.6328 4.04491 28.7506L4.44125 28.9647L8.68372 28.9823L12.9261 29L12.9887 28.7639C13.0232 28.634 13.3043 27.5188 13.6135 26.2856L14.1757 24.0434L18.2229 20.0115C20.6774 17.5661 22.4171 15.8816 22.6437 15.7306L23.0174 15.4817L23.0191 12.2514L23.0208 9.02111H20.3395C18.1649 9.02111 17.5903 9.00351 17.2993 8.92797C17.1019 8.8768 16.7944 8.76118 16.6159 8.67105C16.4374 8.58097 16.131 8.35489 15.935 8.16869C15.7391 7.98254 15.4917 7.66752 15.3853 7.46864C15.2789 7.26982 15.1487 6.942 15.0959 6.74012C15.017 6.43832 15 5.89925 15 3.70222V1.03121L9.84593 1.03758C7.01118 1.04114 4.60731 1.06436 4.50391 1.08926ZM17.0067 3.60807C17.0055 5.67229 17.023 6.25866 17.0906 6.41997C17.1377 6.53201 17.2654 6.69854 17.3745 6.79C17.4836 6.88145 17.6636 6.97244 17.7746 6.9923C17.8857 7.0121 19.1044 7.02026 20.483 7.01041L22.9895 6.99242L19.9988 3.99622L17.0082 1L17.0067 3.60807ZM12.5321 8.1823C12.6272 8.25307 12.7631 8.38853 12.8342 8.48335C12.9303 8.61149 12.9634 8.74945 12.9634 9.02111C12.9634 9.29277 12.9303 9.43072 12.8342 9.55887C12.7631 9.65369 12.6272 9.78914 12.5321 9.85992C12.3662 9.98339 12.2678 9.98945 10.1234 10.0079C8.66059 10.0206 7.80851 10.0041 7.65856 9.96036C7.53247 9.9236 7.34355 9.79607 7.23866 9.6771C7.13376 9.55811 7.02929 9.36181 7.00655 9.2409C6.98381 9.12004 6.98348 8.9236 7.00592 8.80445C7.02842 8.68535 7.12179 8.49902 7.21346 8.39047C7.30519 8.28193 7.46618 8.15527 7.57127 8.10902C7.72221 8.0426 8.2454 8.02792 10.0608 8.03928C12.2726 8.05302 12.3656 8.05844 12.5321 8.1823ZM18.5476 12.1772C18.6428 12.248 18.7788 12.3835 18.8498 12.4783C18.9459 12.6065 18.9791 12.7444 18.9791 13.0161C18.9791 13.2877 18.9459 13.4257 18.8498 13.5538C18.7788 13.6486 18.6428 13.7841 18.5476 13.8549C18.3766 13.9821 18.3146 13.9838 13.1312 14.0022C9.56602 14.0149 7.81433 13.9997 7.65856 13.9546C7.53247 13.9182 7.34355 13.791 7.23866 13.672C7.13376 13.5531 7.02929 13.3568 7.00655 13.2358C6.98381 13.115 6.98348 12.9186 7.00592 12.7994C7.02842 12.6803 7.12179 12.494 7.21346 12.3854C7.30519 12.2769 7.46618 12.1505 7.57127 12.1046C7.72674 12.0367 8.75297 12.0237 13.0685 12.0348C18.3191 12.0484 18.3764 12.0499 18.5476 12.1772ZM17.545 16.1722C17.6402 16.243 17.7762 16.3784 17.8473 16.4733C17.9433 16.6014 17.9765 16.7394 17.9765 17.011C17.9765 17.2827 17.9433 17.4206 17.8473 17.5488C17.7762 17.6436 17.6402 17.779 17.545 17.8498C17.3744 17.9768 17.3069 17.9788 12.6299 17.9973C9.41532 18.0099 7.81391 17.9946 7.65856 17.9496C7.53247 17.9132 7.34355 17.786 7.23866 17.667C7.13376 17.548 7.02929 17.3517 7.00655 17.2308C6.98381 17.11 6.98348 16.9135 7.00592 16.7943C7.02842 16.6753 7.12179 16.4889 7.21346 16.3804C7.30519 16.2718 7.46618 16.1454 7.57127 16.0995C7.72636 16.0317 8.66844 16.0185 12.5672 16.0297C17.3114 16.0433 17.3742 16.0451 17.545 16.1722ZM24.2943 17.0972C24.1504 17.144 23.9389 17.2407 23.8244 17.312C23.7099 17.3834 23.3061 17.7523 22.9275 18.1319L22.2388 18.8221L23.726 20.3036L25.2132 21.7849L25.9366 21.0679C26.4345 20.5739 26.7128 20.2436 26.8299 20.0072C26.9744 19.7153 27 19.5844 27 19.1333C27 18.6898 26.9726 18.5449 26.834 18.2502C26.7428 18.0563 26.5496 17.7795 26.4047 17.6352C26.2598 17.4909 25.9835 17.3009 25.7907 17.2129C25.5473 17.1019 25.3052 17.0468 24.9981 17.0325C24.7371 17.0203 24.4491 17.0468 24.2943 17.0972ZM13.5347 20.1672C13.6298 20.2379 13.7658 20.3734 13.8368 20.4682C13.9329 20.5963 13.966 20.7343 13.966 21.0059C13.966 21.2776 13.9329 21.4156 13.8368 21.5437C13.7658 21.6386 13.6298 21.774 13.5347 21.8447C13.3671 21.9694 13.2757 21.9742 10.6247 21.9927C8.81188 22.0052 7.81032 21.9891 7.65856 21.945C7.53247 21.9083 7.34355 21.781 7.23866 21.662C7.13376 21.5431 7.02929 21.3467 7.00655 21.2257C6.98381 21.105 6.98348 20.9084 7.00592 20.7893C7.02842 20.6702 7.12179 20.4839 7.21346 20.3753C7.30519 20.2668 7.46618 20.1402 7.57127 20.0941C7.72366 20.0271 8.33005 20.013 10.562 20.0243C13.2804 20.038 13.3667 20.0422 13.5347 20.1672ZM18.3943 22.6496L15.993 25.0423L15.5003 27.0021C15.2294 28.08 15.0136 28.9678 15.0208 28.975C15.0281 28.9823 15.9195 28.7673 17.0017 28.4974L18.9694 28.0065L21.3865 25.5989L23.8034 23.1911L22.3317 21.724C21.5223 20.9171 20.8455 20.2569 20.8278 20.2569C20.8101 20.2569 19.715 21.3336 18.3943 22.6496Z" fill="#001887"/>
</svg>
