<svg width="30" height="30" viewBox="0 0 30 30" fill="none" xmlns="http://www.w3.org/2000/svg">
<path fill-rule="evenodd" clip-rule="evenodd" d="M18.093 1.14914C17.8944 1.23116 17.633 1.37773 17.5122 1.47484C17.3914 1.57194 17.2054 1.76475 17.099 1.90326C16.9925 2.04183 16.8472 2.31049 16.7761 2.5003C16.6509 2.8348 16.6474 2.92592 16.664 5.449L16.6812 8.05258L16.8438 8.39915C16.9333 8.58977 17.1225 8.87149 17.2643 9.02514C17.4137 9.18705 17.6918 9.38804 17.9255 9.50303C18.2605 9.66788 18.4143 9.70514 18.8319 9.72296L19.3349 9.74435L19.3721 10.0283C19.3924 10.1845 19.451 10.4292 19.5023 10.5722C19.5536 10.7151 19.7169 10.9534 19.8653 11.1016C20.0389 11.275 20.2471 11.4083 20.4493 11.4754C20.6674 11.5478 20.8785 11.5704 21.1399 11.5494C21.347 11.5328 21.6114 11.4709 21.7276 11.4119C21.8437 11.3528 22.2966 10.9519 22.7338 10.5208L23.5288 9.73719L25.4252 9.71936L27.3216 9.70152L27.725 9.50303C27.9588 9.38804 28.237 9.18705 28.3863 9.02514C28.5281 8.87149 28.7173 8.58977 28.8067 8.39915L28.9693 8.05258V5.3654V2.67821L28.8067 2.33162C28.7173 2.14101 28.5315 1.86313 28.3943 1.71418C28.2568 1.56523 27.9722 1.35019 27.7621 1.23629L27.3799 1.02925L22.917 1.0146L18.4541 1L18.093 1.14914ZM3.84359 2.353C3.67589 2.38494 3.30846 2.51887 3.02706 2.6506C2.61825 2.842 2.42048 2.9854 2.04284 3.36435C1.71913 3.68913 1.50974 3.96367 1.37818 4.23556C1.27248 4.45388 1.14422 4.79632 1.09305 4.9965C1.01217 5.31288 1 6.36442 1 13.03C1 19.6955 1.01217 20.7471 1.09305 21.0634C1.14422 21.2636 1.27248 21.606 1.37818 21.8244C1.50974 22.0963 1.71913 22.3708 2.04284 22.6956C2.42121 23.0753 2.61727 23.2173 3.02626 23.408C3.30723 23.539 3.70034 23.6761 3.89989 23.7124C4.15158 23.7584 7.55016 23.7787 15 23.7787C22.4498 23.7787 25.8484 23.7584 26.1001 23.7124C26.2995 23.6761 26.6927 23.539 26.9736 23.408C27.3849 23.2163 27.5759 23.0774 27.9538 22.6956C28.265 22.3809 28.4887 22.0878 28.6187 21.8244C28.7262 21.606 28.8561 21.2636 28.9071 21.0634C28.9866 20.752 29 19.9468 29 15.4846V10.2697L28.8013 10.4003C28.692 10.472 28.4723 10.5986 28.3132 10.6816C28.1541 10.7645 27.8652 10.8772 27.6713 10.9319C27.399 11.0088 26.9428 11.0378 25.6681 11.0591L24.0175 11.0868L23.3755 11.7115C23.0224 12.0551 22.6343 12.396 22.5129 12.469C22.3915 12.5421 22.1747 12.6433 22.0311 12.6939C21.8875 12.7445 21.5948 12.8138 21.3807 12.848C21.1128 12.8908 20.8624 12.8901 20.5786 12.8457C20.3516 12.8103 19.9636 12.6861 19.7163 12.5697C19.4068 12.4241 19.1591 12.248 18.9215 12.0047C18.7317 11.8103 18.4992 11.4976 18.4047 11.3098C18.2558 11.0135 18.205 10.9638 18.0213 10.934C17.9048 10.9152 17.6026 10.8003 17.3497 10.6787C17.0542 10.5368 16.7434 10.3197 16.4799 10.0713C16.2543 9.8588 15.9658 9.51001 15.8386 9.29624C15.7115 9.08249 15.5464 8.7152 15.4718 8.48007C15.3408 8.0671 15.3362 7.96633 15.3362 5.51806C15.3362 4.1241 15.357 2.82551 15.3826 2.6324L15.429 2.28124L9.78873 2.28808C6.50835 2.29205 4.02088 2.31922 3.84359 2.353ZM11.179 8.48032C11.4144 8.52972 11.812 8.67092 12.0627 8.79412C12.3861 8.95314 12.6434 9.14394 12.9494 9.45144C13.1921 9.69542 13.4678 10.0498 13.5804 10.2625C13.6903 10.4703 13.8346 10.8526 13.9011 11.1121C13.9675 11.3715 14.0213 11.7511 14.0208 11.9557C14.0202 12.1602 13.9803 12.513 13.9323 12.7396C13.8842 12.9662 13.7332 13.3659 13.5968 13.6279C13.4434 13.9226 13.2101 14.2431 12.9853 14.4684C12.7855 14.6687 12.4742 14.922 12.2937 15.0313C12.1132 15.1406 11.8023 15.2894 11.6028 15.3621C11.347 15.4552 11.051 15.5017 10.5982 15.5199C10.125 15.539 9.85188 15.5188 9.55894 15.4431C9.34038 15.3866 8.96897 15.2399 8.73362 15.1171C8.47311 14.9813 8.14757 14.7366 7.90167 14.4918C7.62546 14.2169 7.42671 13.9462 7.27339 13.6362C7.15008 13.3867 7.00893 13.0315 6.95976 12.8467C6.91068 12.662 6.87009 12.2761 6.8697 11.9893C6.86929 11.7024 6.91075 11.3039 6.96178 11.1037C7.01284 10.9035 7.14348 10.5611 7.25218 10.3428C7.38173 10.0826 7.60768 9.78715 7.90827 9.48514C8.18674 9.2053 8.51565 8.94673 8.74595 8.8266C8.95449 8.71776 9.32588 8.5762 9.57127 8.51197C9.81667 8.44778 10.1825 8.39414 10.3843 8.39287C10.586 8.39165 10.9436 8.43097 11.179 8.48032ZM6.99591 15.4481C7.0774 15.5351 7.30897 15.7305 7.51048 15.8822C7.71203 16.0338 8.03398 16.2371 8.22601 16.3339C8.41798 16.4308 8.8033 16.576 9.08226 16.6567C9.36128 16.7374 9.79584 16.8225 10.048 16.8458C10.3146 16.8705 10.724 16.8586 11.0262 16.8175C11.312 16.7785 11.7521 16.6784 12.0043 16.5948C12.2565 16.5113 12.6521 16.3312 12.8835 16.1947C13.1148 16.0582 13.4833 15.7947 13.7022 15.6092L14.1002 15.2719L14.5042 15.4703C14.7264 15.5794 15.0772 15.7888 15.2837 15.9356C15.4902 16.0823 15.7751 16.3337 15.9167 16.4942C16.0585 16.6546 16.2506 16.9371 16.3437 17.1218C16.4368 17.3065 16.544 17.6034 16.5818 17.7813C16.6197 17.9594 16.6506 18.3323 16.6506 18.61C16.6506 18.8893 16.6081 19.2581 16.5555 19.4351C16.5015 19.6166 16.3674 19.8579 16.2459 19.9923C16.128 20.1227 15.9145 20.2859 15.7716 20.3551C15.5155 20.4789 15.436 20.4808 10.4413 20.4795C5.65569 20.4782 5.35729 20.4718 5.12425 20.3661C4.98847 20.3045 4.76513 20.1267 4.62801 19.9711C4.48826 19.8125 4.34496 19.5678 4.30198 19.4145C4.25179 19.2353 4.23399 18.879 4.25056 18.3825C4.27483 17.6541 4.2848 17.6062 4.50317 17.1647C4.67692 16.8136 4.83643 16.6066 5.17902 16.2875C5.45993 16.0259 5.83084 15.762 6.17179 15.5811C6.47118 15.4224 6.74573 15.2918 6.78193 15.2911C6.81805 15.2903 6.91434 15.3609 6.99591 15.4481ZM10.3643 25.1676C10.3339 25.2268 10.1793 25.6666 10.0206 26.1452L9.73219 27.0156H8.71092C7.77324 27.0156 7.66734 27.0267 7.41738 27.1529C7.26759 27.2286 7.08052 27.3866 7.00164 27.5042C6.88348 27.6802 6.86237 27.7778 6.88195 28.0578C6.89741 28.2791 6.95218 28.463 7.039 28.5846C7.1123 28.6874 7.27597 28.8229 7.40269 28.8858C7.62393 28.9955 7.92735 29 15 29C22.0726 29 22.376 28.9955 22.5972 28.8858C22.724 28.8229 22.8876 28.6874 22.9609 28.5846C23.0478 28.463 23.1025 28.2791 23.118 28.0578C23.1376 27.7778 23.1165 27.6802 22.9983 27.5042C22.9194 27.3866 22.7323 27.2286 22.5826 27.1529C22.3326 27.0267 22.2266 27.0156 21.2901 27.0156H20.27L19.9428 26.0537L19.6157 25.0918L15.0176 25.0761C10.6848 25.0614 10.4164 25.0666 10.3643 25.1676Z" fill="#001887"/>
</svg>
