<svg width="30" height="30" viewBox="0 0 30 30" fill="none" xmlns="http://www.w3.org/2000/svg">
<g clip-path="url(#clip0_2001_3531)">
<path fill-rule="evenodd" clip-rule="evenodd" d="M14.0905 0.0825464C13.8649 0.125214 13.5239 0.215356 13.3327 0.282991C13.1414 0.350568 12.8118 0.500961 12.6002 0.617242C12.3887 0.733465 12.0469 0.962687 11.8409 1.12656C11.6349 1.29043 11.3233 1.59725 11.1485 1.80842C10.9736 2.01954 10.7006 2.45606 10.5417 2.77841C10.3829 3.10077 10.2103 3.52276 10.1582 3.71617C10.106 3.90958 10.0501 4.38754 10.034 4.77829C10.012 5.31041 10.0296 5.61207 10.1039 5.97977C10.1585 6.24984 10.2824 6.66122 10.3791 6.89396C10.4759 7.1267 10.6617 7.48211 10.792 7.68378C10.9223 7.88546 11.2036 8.23214 11.4171 8.45415C11.6306 8.67622 11.9585 8.96241 12.1457 9.09018C12.3329 9.21789 12.6757 9.4123 12.9074 9.52208C13.1392 9.63191 13.5397 9.77779 13.7975 9.84631C14.1564 9.94166 14.4381 9.97085 14.9987 9.97085C15.5541 9.97085 15.8444 9.94114 16.1999 9.84801C16.4577 9.78043 16.9375 9.59258 17.2662 9.43059C17.742 9.19597 17.9658 9.03931 18.3649 8.6614C18.6405 8.40041 18.9938 7.99588 19.1499 7.76244C19.306 7.52894 19.5148 7.14282 19.614 6.90439C19.7131 6.66591 19.8392 6.24838 19.8942 5.97649C19.9701 5.60129 19.9865 5.3117 19.9625 4.77501C19.9417 4.31041 19.8876 3.91779 19.8049 3.63054C19.7356 3.39001 19.5615 2.96585 19.4181 2.68804C19.2746 2.41017 19.0034 2.00031 18.8153 1.7773C18.6271 1.55429 18.3138 1.24683 18.1189 1.09415C17.9239 0.94147 17.5706 0.713596 17.3337 0.58782C17.0968 0.462044 16.7316 0.304325 16.5221 0.237335C16.3127 0.170344 15.9699 0.0885246 15.7604 0.0554687C15.551 0.0224129 15.1818 -0.00249624 14.9401 0.000199808C14.6984 0.00283724 14.3161 0.0399371 14.0905 0.0825464ZM22.5107 7.6039C22.3401 7.66485 22.1028 7.79274 21.9834 7.88822C21.864 7.98363 21.681 8.18754 21.5767 8.34133C21.4724 8.49512 21.3574 8.73055 21.3212 8.86459C21.2849 8.99858 21.2672 9.29285 21.2818 9.5185C21.2988 9.78219 21.3544 10.0187 21.4373 10.1805C21.5082 10.3189 21.6598 10.5357 21.7741 10.6623C21.8883 10.7888 22.1244 10.9621 22.2986 11.0473C22.4958 11.1439 22.7535 11.2132 22.9818 11.2311C23.2602 11.2531 23.4377 11.2297 23.7204 11.1339L24.0925 11.0078L24.4041 11.2484C24.5755 11.3806 24.9294 11.7114 25.1906 11.9836C25.4517 12.2556 25.811 12.7017 25.9888 12.9747C26.1667 13.2477 26.3995 13.663 26.5059 13.8978C26.6125 14.1324 26.7564 14.4963 26.8259 14.7063C26.8954 14.9163 26.9917 15.2944 27.0399 15.5466C27.0881 15.7988 27.1276 16.0556 27.1276 16.1172C27.1276 16.2236 27.0717 16.2293 26.0266 16.2293H24.9255L24.8323 15.8337C24.7809 15.6161 24.6553 15.2216 24.553 14.957C24.4508 14.6924 24.233 14.2704 24.0692 14.0192C23.9054 13.7681 23.6513 13.4218 23.5045 13.2499C23.3578 13.0779 23.0255 12.7674 22.7662 12.5599C22.5069 12.3523 22.0703 12.0672 21.7961 11.9262C21.5219 11.7852 21.0855 11.6034 20.8264 11.5221C20.5672 11.4408 20.15 11.3458 19.8993 11.3109C19.6051 11.27 17.8671 11.2475 14.9987 11.2475C12.1677 11.2475 10.3877 11.2702 10.0957 11.3102C9.84363 11.3447 9.40219 11.4512 9.11473 11.5469C8.82721 11.6425 8.39104 11.8254 8.14541 11.9532C7.89984 12.081 7.48752 12.3547 7.2293 12.5615C6.97102 12.7681 6.64055 13.0779 6.49488 13.2499C6.34928 13.4218 6.11438 13.734 5.97293 13.9435C5.83148 14.1531 5.61809 14.5507 5.49873 14.8272C5.37937 15.1037 5.23494 15.531 5.1777 15.777L5.07375 16.2241L2.87314 16.2414L0.672539 16.2586L0.445899 16.3996C0.306212 16.4864 0.177422 16.6325 0.110274 16.7805C0.0503327 16.9125 0.000703764 17.1002 6.39177e-07 17.1975C-0.000702486 17.2949 0.57879 18.9697 1.28783 20.9193C1.99682 22.8688 2.62576 24.5299 2.68553 24.6105C2.74529 24.6911 2.88369 24.8098 2.99314 24.8742C3.17098 24.979 3.31793 24.9934 4.37859 25.0104C5.41189 25.027 5.56512 25.0178 5.56512 24.9399C5.56512 24.8906 5.44822 24.1041 5.30537 23.1919C5.16246 22.2798 5.02904 21.3752 5.00877 21.1818C4.98609 20.9651 5.00514 20.6455 5.05834 20.3488C5.10961 20.063 5.2323 19.6853 5.36033 19.419C5.51748 19.0922 5.68963 18.8564 5.99531 18.5494C6.26889 18.2747 6.55734 18.0546 6.82488 17.9164C7.05047 17.7999 7.39705 17.6627 7.59504 17.6116C7.91396 17.5293 8.76088 17.5187 15.0095 17.5187C21.1493 17.5187 22.1085 17.5303 22.4078 17.6083C22.5969 17.6576 22.9386 17.7947 23.1671 17.913C23.4395 18.0541 23.7272 18.2734 24.0021 18.5494C24.3078 18.8564 24.4799 19.0922 24.6371 19.419C24.7651 19.6853 24.8878 20.063 24.9391 20.3488C24.9923 20.6455 25.0113 20.9651 24.9887 21.1818C24.9684 21.3752 24.835 22.2798 24.6921 23.1919C24.5492 24.1041 24.4323 24.8906 24.4323 24.9399C24.4323 25.0178 24.5855 25.027 25.6188 25.0104C26.6795 24.9934 26.8264 24.979 27.0043 24.8742C27.1137 24.8098 27.2521 24.6911 27.3119 24.6105C27.3717 24.5299 28.0006 22.8688 28.7096 20.9193C29.4186 18.9697 29.9981 17.2949 29.9974 17.1975C29.9967 17.1002 29.9471 16.9125 29.8871 16.7805C29.8246 16.6426 29.6942 16.4894 29.5808 16.4205C29.4723 16.3546 29.3007 16.2831 29.1996 16.2617C29.022 16.2242 29.0142 16.2097 28.9749 15.8429C28.9525 15.6339 28.8727 15.1906 28.7975 14.8579C28.7224 14.5251 28.5531 13.9789 28.4215 13.644C28.2898 13.3091 28.07 12.8309 27.9332 12.5814C27.7963 12.3319 27.5139 11.8868 27.3056 11.5922C27.0973 11.2975 26.7011 10.8291 26.425 10.5512C26.1489 10.2733 25.7216 9.89454 25.4756 9.70939C25.0597 9.39654 25.0237 9.35211 24.965 9.07852C24.9304 8.9167 24.8638 8.69287 24.8171 8.58116C24.7705 8.46945 24.6111 8.24849 24.463 8.09013C24.3035 7.91957 24.0691 7.74831 23.8882 7.67019C23.7122 7.59417 23.4212 7.52865 23.2018 7.51563C22.9298 7.49957 22.7323 7.52478 22.5107 7.6039ZM8.12807 20.0641C8.00689 20.1073 7.8665 20.177 7.81611 20.2188C7.76572 20.2606 7.67373 20.3945 7.61162 20.5162C7.54951 20.638 7.49871 20.7993 7.49871 20.8747C7.49871 20.9501 7.7884 22.8926 8.14242 25.1913C8.67551 28.6524 8.80799 29.406 8.91322 29.5763C8.98729 29.6962 9.14033 29.8275 9.28025 29.891C9.50871 29.9948 9.78275 30 14.9987 30C20.2147 30 20.4887 29.9948 20.7172 29.891C20.8572 29.8274 21.0101 29.6962 21.0844 29.5761C21.1899 29.4053 21.3228 28.6476 21.8629 25.1391C22.4514 21.3165 22.5073 20.8849 22.4426 20.6688C22.4032 20.5372 22.2987 20.3574 22.2105 20.2691C22.1222 20.1808 21.9466 20.0799 21.8203 20.0448C21.6606 20.0004 19.5699 19.9817 14.9694 19.9832C9.58453 19.9851 8.30719 20.0001 8.12807 20.0641Z" fill="#001887"/>
</g>
<defs>
<clipPath id="clip0_2001_3531">
<rect width="30" height="30" fill="white"/>
</clipPath>
</defs>
</svg>
