<svg width="30" height="30" viewBox="0 0 30 30" fill="none" xmlns="http://www.w3.org/2000/svg">
<path fill-rule="evenodd" clip-rule="evenodd" d="M2.86925 3.17618C2.67232 3.27849 2.45938 3.44528 2.36125 3.57407C2.26832 3.69608 2.14903 3.89534 2.09614 4.01688C2.00637 4.22328 2 4.77001 2 12.2983V20.3587L2.15451 20.6858C2.23952 20.8657 2.40023 21.0962 2.51166 21.1979C2.62314 21.2996 2.82771 21.4374 2.96633 21.5041L3.21837 21.6253H15.0144H26.8103L27.0793 21.4876C27.2273 21.4119 27.4358 21.2591 27.5427 21.1481C27.6495 21.037 27.7961 20.814 27.8684 20.6524L28 20.3587V12.3271V4.29542L27.8707 4.00755C27.7996 3.84922 27.6742 3.637 27.592 3.5359C27.51 3.4348 27.2902 3.2729 27.1038 3.17606L26.7651 3H14.9867H3.20834L2.86925 3.17618ZM16.5169 5.67283C16.8255 5.75161 17.2996 5.9154 17.5704 6.03676C17.8413 6.15818 18.2866 6.40869 18.56 6.59352C18.8494 6.78908 19.2799 7.16108 19.5902 7.48362C19.9004 7.80619 20.2582 8.25372 20.4464 8.55455C20.6241 8.83881 20.8633 9.29767 20.978 9.5742C21.0927 9.85074 21.2364 10.2748 21.2973 10.5165C21.3582 10.7583 21.4369 11.1804 21.4721 11.4545C21.5084 11.7369 21.5226 12.2272 21.5049 12.5862C21.4877 12.9345 21.4344 13.4096 21.3866 13.6419C21.3387 13.8743 21.2357 14.2629 21.1578 14.5056C21.0798 14.7482 20.9177 15.137 20.7975 15.3697C20.6773 15.6024 20.4859 15.9392 20.3722 16.1182C20.2585 16.2972 19.9659 16.6615 19.722 16.9278C19.4782 17.194 19.0909 17.5575 18.8613 17.7354C18.6317 17.9133 18.2435 18.1673 17.9985 18.2998C17.7535 18.4323 17.33 18.6184 17.0575 18.7133C16.785 18.8083 16.3259 18.9257 16.0374 18.9744C15.7489 19.023 15.276 19.0628 14.9867 19.0628C14.6973 19.0628 14.2338 19.0246 13.9568 18.9778C13.6797 18.9311 13.227 18.8162 12.9508 18.7223C12.6746 18.6285 12.3014 18.4745 12.1215 18.38C11.9416 18.2857 11.5718 18.0535 11.2995 17.8642C11.0095 17.6626 10.5979 17.2972 10.3055 16.9818C10.0311 16.6858 9.69188 16.2618 9.55176 16.0395C9.41165 15.8173 9.21922 15.4751 9.12407 15.2792C9.02892 15.0832 8.88869 14.7298 8.81244 14.4936C8.73624 14.2575 8.63468 13.8743 8.58676 13.6419C8.53891 13.4096 8.48563 12.9345 8.46847 12.5862C8.45075 12.2272 8.46497 11.7369 8.50125 11.4545C8.53648 11.1804 8.61513 10.7583 8.67603 10.5165C8.73696 10.2748 8.88062 9.85074 8.99531 9.5742C9.10999 9.29767 9.34925 8.83881 9.52701 8.55455C9.71513 8.25372 10.0729 7.80619 10.3832 7.48362C10.6935 7.16108 11.124 6.78908 11.4133 6.59352C11.6867 6.40869 12.1271 6.16043 12.3918 6.04177C12.6565 5.92311 13.0808 5.77083 13.3346 5.70346C13.5884 5.63604 13.9455 5.55867 14.1283 5.53144C14.311 5.50426 14.797 5.49275 15.2082 5.50581C15.7554 5.5232 16.1062 5.56793 16.5169 5.67283ZM13.0042 9.25178C12.8462 9.33365 12.6706 9.46971 12.6142 9.55405C12.5577 9.63839 12.4828 9.79551 12.4477 9.90311C12.4038 10.0373 12.3838 10.786 12.3838 12.2858C12.3838 13.8494 12.4032 14.5403 12.4519 14.7097C12.4907 14.8449 12.6179 15.0486 12.7479 15.184C12.8733 15.3145 13.0704 15.4537 13.1859 15.4933C13.3087 15.5355 13.5087 15.5515 13.6675 15.532C13.8938 15.5041 14.226 15.3191 15.658 14.4234C16.6034 13.8321 17.4532 13.2815 17.5465 13.1999C17.6397 13.1183 17.7618 12.9468 17.8177 12.8188C17.8736 12.6909 17.92 12.4622 17.9206 12.3108C17.9213 12.1594 17.8835 11.9401 17.8366 11.8235C17.7898 11.707 17.7093 11.5632 17.6578 11.504C17.6063 11.4448 16.7979 10.9182 15.8614 10.3337C14.9249 9.74911 14.0716 9.23307 13.9652 9.18689C13.8589 9.14072 13.6638 9.10289 13.5317 9.10289C13.3845 9.10289 13.1805 9.16047 13.0042 9.25178ZM6.2089 23.9227C6.08707 23.9629 5.88769 24.0495 5.76586 24.1153C5.64403 24.1811 5.46615 24.3213 5.37056 24.4271C5.27496 24.5326 5.15595 24.7034 5.10606 24.8064L5.0154 24.9935H3.8502C3.07931 24.9935 2.64402 25.0158 2.56399 25.0596C2.49748 25.0961 2.42471 25.1543 2.40234 25.1891C2.37997 25.224 2.3613 25.3181 2.3608 25.3981C2.36036 25.4782 2.39879 25.6012 2.4462 25.6715C2.53093 25.7972 2.55364 25.7995 3.77666 25.7995H5.02099L5.07416 25.945C5.10345 26.0251 5.24031 26.216 5.37825 26.3694C5.5342 26.5427 5.75579 26.7073 5.96368 26.8043C6.1831 26.9067 6.43529 26.9711 6.69659 26.9915C6.97359 27.0133 7.20413 26.9936 7.45313 26.9273C7.65007 26.8749 7.93151 26.7517 8.07848 26.6536C8.22547 26.5554 8.41525 26.3685 8.50021 26.2381C8.58516 26.1077 8.67056 25.9556 8.68995 25.9002C8.72339 25.8048 9.22906 25.7995 18.2484 25.7995H27.7714L27.8894 25.6436C27.9708 25.536 27.9971 25.4425 27.9741 25.3414C27.9558 25.2609 27.8894 25.1496 27.8265 25.0942C27.7182 24.999 27.1799 24.9935 18.2315 24.9935H8.75114L8.55996 24.6911C8.4548 24.525 8.24789 24.305 8.10018 24.2023C7.9525 24.0997 7.70499 23.9766 7.55015 23.9288C7.39537 23.881 7.08008 23.8437 6.84954 23.8458C6.61905 23.8479 6.33073 23.8825 6.2089 23.9227Z" fill="#001887"/>
</svg>
