<svg width="30" height="30" viewBox="0 0 30 30" fill="none" xmlns="http://www.w3.org/2000/svg">
<path fill-rule="evenodd" clip-rule="evenodd" d="M13.4431 2.08863C13.3534 2.13721 13.2346 2.21962 13.179 2.27176C13.1235 2.32389 13.0453 2.43229 13.0053 2.51261C12.9653 2.593 12.2048 4.563 11.3153 6.89046C10.4258 9.2179 9.68718 11.1895 9.67385 11.2719C9.65746 11.3732 9.68658 11.46 9.76387 11.5402C9.87451 11.6551 9.92654 11.6588 11.412 11.6588C12.8497 11.6588 12.9606 11.6661 13.1776 11.7751C13.3495 11.8615 13.4398 11.957 13.5276 12.1452C13.6091 12.3199 13.6356 12.453 13.6126 12.5723C13.5942 12.6676 13.0858 13.9689 12.4827 15.4642C11.8796 16.9595 11.3517 18.2681 11.3095 18.3723C11.2672 18.4764 11.2568 18.5527 11.2862 18.5417C11.3157 18.5308 13.1049 16.5773 15.2624 14.2007C17.4372 11.8049 19.1786 9.84173 19.1707 9.79474C19.1584 9.72232 18.9149 9.70589 17.497 9.68177C15.8898 9.65443 15.8324 9.64957 15.6676 9.52756C15.574 9.45825 15.4576 9.31461 15.409 9.20836C15.3604 9.10205 15.3207 8.95072 15.3207 8.87198C15.3207 8.79324 15.3433 8.66711 15.371 8.59164C15.3986 8.51612 16.1312 7.33291 16.9988 5.96222C18.1302 4.17495 18.5866 3.40769 18.6123 3.24959C18.632 3.12831 18.621 2.92429 18.5877 2.79606C18.5545 2.6679 18.4491 2.47065 18.3535 2.35767C18.258 2.2447 18.1006 2.11795 18.0038 2.07598C17.8662 2.01633 17.3673 1.99972 15.717 2C13.9093 2.00029 13.5829 2.01305 13.4431 2.08863ZM9.01981 7.31845C8.83215 7.3459 8.55098 7.42058 8.39505 7.48435C8.23912 7.54812 7.95954 7.71289 7.77378 7.85049C7.58802 7.98803 7.38435 8.17596 7.32116 8.26803L7.20632 8.4354L7.4059 8.52199C7.51569 8.56956 7.62814 8.60853 7.65578 8.60853C7.68338 8.60853 7.76611 8.67095 7.83958 8.7472C7.93015 8.84114 7.9732 8.94903 7.9732 9.082C7.9732 9.22666 7.93553 9.3089 7.82978 9.39521C7.75092 9.45961 7.63456 9.51231 7.57126 9.51225C7.50796 9.51225 7.32143 9.45797 7.1568 9.39165C6.95052 9.30851 6.68699 9.26247 6.30933 9.24349C5.89085 9.22248 5.6855 9.2388 5.44085 9.31263C5.26462 9.36578 4.99772 9.4739 4.84761 9.55281C4.69756 9.63172 4.42015 9.85038 4.23118 10.0387C3.98703 10.282 3.82516 10.5106 3.67174 10.8288C3.55298 11.075 3.45583 11.3144 3.45583 11.3607C3.45583 11.4178 3.48653 11.4326 3.55108 11.4067C3.60343 11.3858 3.79752 11.3321 3.98235 11.2875C4.21513 11.2313 4.36055 11.223 4.45574 11.2606C4.53129 11.2904 4.63328 11.3785 4.68237 11.4563C4.7436 11.5532 4.76009 11.6523 4.73489 11.7714C4.7147 11.8669 4.6452 11.98 4.58043 12.0227C4.51567 12.0655 4.30999 12.1402 4.12336 12.1889C3.93674 12.2375 3.65508 12.3451 3.49747 12.4279C3.33985 12.5108 3.10816 12.6658 2.9826 12.7725C2.85698 12.8792 2.64396 13.1362 2.50914 13.3435C2.37433 13.5509 2.21416 13.8776 2.15314 14.0695C2.09213 14.2614 2.02737 14.5919 2.00919 14.8038C1.98747 15.057 2.0044 15.327 2.05844 15.5912C2.10373 15.8123 2.21889 16.1539 2.31446 16.3503C2.40998 16.5467 2.62627 16.8583 2.7951 17.0425C2.96393 17.2268 3.22866 17.452 3.38339 17.543C3.53807 17.6339 3.69607 17.7476 3.73444 17.7956C3.77275 17.8436 3.80416 17.9727 3.80416 18.0825C3.80416 18.223 3.76687 18.3135 3.67838 18.3879C3.6092 18.446 3.47771 18.4936 3.38616 18.4936C3.29462 18.4936 3.08916 18.4171 2.92958 18.3236C2.77001 18.2302 2.63944 18.1818 2.63944 18.2162C2.63944 18.2505 2.74187 18.4859 2.86705 18.7391C3.03996 19.0889 3.20803 19.3171 3.56588 19.6879C3.94479 20.0805 4.12674 20.2212 4.49482 20.4058C4.74654 20.5321 5.11174 20.6742 5.30631 20.7216C5.50089 20.769 5.78526 20.8082 5.93825 20.8087L6.21642 20.8095L6.21038 20.3245C6.20461 19.8596 6.21065 19.8338 6.35706 19.7032C6.44104 19.6282 6.56823 19.5668 6.63975 19.5668C6.71127 19.5668 6.83742 19.6273 6.92015 19.7011C7.06253 19.8282 7.07151 19.8649 7.08882 20.393C7.09883 20.6998 7.14395 21.099 7.18902 21.2801C7.23403 21.4613 7.3309 21.7502 7.40427 21.9224C7.47759 22.0945 7.6474 22.395 7.78162 22.5902C7.91583 22.7854 8.16695 23.0764 8.33959 23.2367C8.51223 23.3971 8.87395 23.6416 9.14335 23.7801C9.41412 23.9192 9.81573 24.0716 10.0414 24.1208C10.3255 24.1828 10.615 24.2014 10.9938 24.1821C11.3887 24.162 11.6636 24.1111 11.9953 23.9968C12.2468 23.9101 12.6265 23.7206 12.8389 23.5758C13.0515 23.4309 13.3539 23.1701 13.511 22.9963C13.6682 22.8225 13.7968 22.6563 13.7968 22.627C13.7968 22.5976 13.7294 22.5292 13.6471 22.4751C13.5648 22.4208 13.4301 22.3115 13.3478 22.232C13.2468 22.1346 13.1981 22.0308 13.1981 21.913C13.1981 21.817 13.2349 21.684 13.2798 21.6174C13.3247 21.5508 13.4363 21.4793 13.5276 21.4584C13.6676 21.4265 13.7595 21.4653 14.1126 21.7056C14.343 21.8624 14.7159 22.0789 14.9414 22.1869C15.1667 22.2948 15.5464 22.4363 15.785 22.5014C16.0235 22.5666 16.4571 22.6482 16.7484 22.6828C17.1445 22.7299 17.4209 22.7291 17.8442 22.6797C18.1555 22.6433 18.5907 22.5617 18.8112 22.4983C19.0317 22.435 19.4093 22.2873 19.6503 22.1701C19.8913 22.053 20.2219 21.868 20.385 21.7591C20.5482 21.6501 20.8335 21.4272 21.019 21.2636C21.2046 21.1 21.4929 20.7883 21.6597 20.571C21.8266 20.3537 22.0258 20.0648 22.1025 19.929L22.2418 19.6821L22.1256 19.5127C22.0616 19.4195 21.9345 19.1722 21.8432 18.963C21.7518 18.754 21.6749 18.5004 21.6721 18.3997C21.6693 18.2972 21.7096 18.1677 21.7635 18.1059C21.8164 18.0451 21.9176 17.9804 21.9881 17.9619C22.0587 17.9436 22.1788 17.9531 22.255 17.9832C22.3586 18.0241 22.4543 18.1728 22.6345 18.573C22.7872 18.9123 22.972 19.2159 23.1392 19.4026C23.2843 19.5645 23.5254 19.7783 23.6751 19.8777C23.8248 19.977 24.0931 20.1146 24.2714 20.1833C24.455 20.2541 24.7854 20.3216 25.0334 20.3389C25.339 20.3603 25.5845 20.3419 25.8465 20.2778C26.053 20.2273 26.371 20.1038 26.5534 20.0035C26.7357 19.9031 27.0198 19.6809 27.1849 19.5096C27.3499 19.3383 27.5675 19.0366 27.6684 18.8392C27.7693 18.6418 27.8854 18.3498 27.9263 18.1904C27.9672 18.0309 28.0004 17.6971 28 17.4486C27.9996 17.2001 27.974 16.8831 27.9432 16.7441C27.9124 16.6052 27.8144 16.3332 27.7254 16.1398C27.6364 15.9464 27.4416 15.6494 27.2923 15.4799C27.1431 15.3105 26.8979 15.0899 26.7474 14.9896C26.597 14.8894 26.4657 14.8171 26.4558 14.8288C26.4459 14.8406 26.3816 15.0486 26.313 15.2911C26.228 15.5915 26.1454 15.767 26.0537 15.8419C25.9797 15.9023 25.8666 15.9517 25.8025 15.9517C25.7383 15.9517 25.6299 15.911 25.5614 15.8613C25.493 15.8116 25.4149 15.7105 25.3879 15.6367C25.3534 15.5426 25.3687 15.4052 25.4391 15.1764C25.4943 14.997 25.5721 14.6977 25.6119 14.5113C25.6517 14.3249 25.6832 13.8801 25.6818 13.5228C25.6799 13.0421 25.6483 12.7508 25.56 12.4023C25.4944 12.1433 25.3708 11.7712 25.2853 11.5755C25.1997 11.3798 25.0243 11.0579 24.8953 10.8602C24.7663 10.6625 24.5411 10.3692 24.395 10.2083C24.2488 10.0474 23.9432 9.78231 23.7159 9.61918C23.4885 9.45605 23.1179 9.23931 22.8923 9.13747C22.6666 9.03568 22.4727 8.96208 22.4613 8.97388C22.4499 8.98574 22.5286 9.15865 22.636 9.35816C22.7589 9.58619 22.8315 9.79598 22.8315 9.92319C22.8315 10.0744 22.7953 10.155 22.6881 10.2425C22.6092 10.3069 22.4922 10.3596 22.4281 10.3596C22.3639 10.3596 22.2566 10.3197 22.1895 10.2709C22.1224 10.2222 22.0038 10.0506 21.9259 9.88963C21.8481 9.72871 21.68 9.44452 21.5524 9.25812C21.4247 9.07172 21.1744 8.77511 20.9961 8.59898C20.8177 8.42286 20.5202 8.17709 20.3349 8.05282C20.1496 7.92855 19.8169 7.74859 19.5955 7.65296C19.3741 7.55727 19.0259 7.44317 18.8216 7.39934C18.6173 7.35556 18.3032 7.31275 18.1236 7.30422C17.944 7.29569 17.6597 7.29337 17.4918 7.29908L17.1864 7.30936L16.7434 8.00351C16.4997 8.38524 16.3004 8.71568 16.3004 8.73783C16.3004 8.75991 16.9662 8.77799 17.7799 8.77799C19.1763 8.77799 19.2728 8.78471 19.4979 8.8978C19.6382 8.96829 19.7942 9.10838 19.877 9.23812C19.96 9.36832 20.0277 9.56857 20.0424 9.72712C20.0577 9.89172 20.0363 10.0725 19.9874 10.1942C19.943 10.3044 19.1489 11.247 18.2043 12.3109C17.2676 13.3658 15.8988 14.9021 15.1625 15.7249C14.4264 16.5477 13.3586 17.7145 12.7899 18.3178C12.2211 18.921 11.6469 19.487 11.5138 19.5755C11.3417 19.6899 11.2027 19.7363 11.0322 19.7363C10.9004 19.7363 10.7086 19.6949 10.606 19.6444C10.5034 19.5938 10.3711 19.4888 10.312 19.4108C10.2422 19.3186 10.2047 19.1825 10.2047 19.0209C10.2047 18.8248 10.4574 18.148 11.4094 15.7947C12.0721 14.1568 12.626 12.7596 12.6404 12.6896L12.6665 12.5626L11.2043 12.5613C9.90156 12.5602 9.71798 12.5487 9.52129 12.456C9.39986 12.3988 9.21297 12.2458 9.10591 12.116C8.99891 11.9862 8.8807 11.7666 8.8433 11.6279C8.80591 11.4893 8.78784 11.2807 8.80319 11.1643C8.81854 11.0479 9.1279 10.1737 9.49065 9.22157C9.85345 8.26944 10.1502 7.46356 10.1502 7.43069C10.1502 7.39787 10.0706 7.35844 9.97335 7.34314C9.87609 7.32777 9.6985 7.30478 9.57876 7.2919C9.45903 7.27908 9.20752 7.29106 9.01981 7.31845ZM22.5857 20.8166C22.4399 21.038 22.1322 21.4167 21.9017 21.6582C21.6712 21.8996 21.3024 22.2292 21.0822 22.3906C20.8619 22.552 20.4735 22.7928 20.219 22.9257C19.9646 23.0586 19.5605 23.2355 19.321 23.3189C19.0815 23.4022 18.6468 23.5129 18.355 23.5649C18.0631 23.6168 17.8243 23.6833 17.8243 23.7126C17.8243 23.7418 18.0531 24.0006 18.3328 24.2876C18.7772 24.7437 18.9125 24.8449 19.4077 25.0922C19.7192 25.2477 20.1333 25.4177 20.3279 25.4698C20.5235 25.5223 21.0049 25.5784 21.4047 25.5952C21.8607 25.6145 22.2828 25.5999 22.5477 25.5559C22.7786 25.5175 23.1635 25.4222 23.403 25.3441C23.6424 25.266 23.9853 25.1259 24.1649 25.0327C24.3445 24.9394 24.6424 24.7521 24.8268 24.6164C25.0112 24.4807 25.2736 24.2374 25.4098 24.0758C25.546 23.9142 25.7298 23.6407 25.8182 23.4679C25.9067 23.2951 26.0179 22.9975 26.0653 22.8066C26.1127 22.6157 26.1509 22.2726 26.1502 22.0441C26.1495 21.8155 26.1271 21.5312 26.1005 21.4123C26.0739 21.2933 26.0439 21.1887 26.0337 21.1797C26.0237 21.1707 25.8468 21.1901 25.6408 21.2228C25.3748 21.2651 25.129 21.2644 24.7933 21.2204C24.5332 21.1863 24.1371 21.0846 23.9131 20.9943C23.6891 20.904 23.3699 20.7365 23.2038 20.6221C23.0377 20.5077 22.8903 20.4141 22.8763 20.4141C22.8622 20.4141 22.7315 20.5953 22.5857 20.8166ZM14.3274 23.3993C14.153 23.6247 14.0691 23.7861 14.0695 23.8954C14.0697 23.9845 14.1275 24.1856 14.1977 24.3422C14.268 24.4988 14.4054 24.6967 14.5031 24.782C14.6008 24.8673 14.7523 24.9755 14.8399 25.0225C14.9274 25.0695 15.1969 25.1314 15.4387 25.16C15.6805 25.1887 15.9859 25.2661 16.1173 25.3321C16.3046 25.4262 16.6741 25.8289 17.8231 27.191C18.6299 28.1474 19.3296 28.9457 19.3779 28.9649C19.4264 28.9842 19.5463 29 19.6446 29C19.7653 29 19.8701 28.9514 19.9678 28.85L20.1123 28.6999L20.0976 27.5194L20.083 26.339L19.6845 26.1997C19.4652 26.1232 19.1591 25.9939 19.0041 25.9126C18.8491 25.8312 18.5853 25.6682 18.4178 25.5504C18.2503 25.4325 17.9763 25.2062 17.809 25.0474C17.6415 24.8886 17.3837 24.5882 17.2359 24.3798C17.0881 24.1715 16.9298 23.9245 16.8841 23.8311C16.8062 23.6717 16.7677 23.6553 16.2629 23.5659C15.9668 23.5135 15.5052 23.3914 15.2369 23.2946C14.9687 23.1979 14.7125 23.1067 14.6676 23.092C14.616 23.0752 14.4908 23.1883 14.3274 23.3993Z" fill="#001887"/>
</svg>
